<svg width="60" height="31" viewBox="0 0 60 31" fill="none" xmlns="http://www.w3.org/2000/svg">
<path d="M37.7888 0C39.2365 0.00026313 40.1686 1.53525 39.5015 2.82015L25.4705 29.8453C25.1384 30.4847 24.4774 30.8859 23.7569 30.8859H22.212C20.7642 30.8859 19.8313 29.3508 20.4985 28.0658L34.5294 1.04059C34.8615 0.401097 35.5225 0 36.243 0H37.7888Z" fill="currentColor"/>
<path d="M37.7888 0C39.2365 0.00026313 40.1686 1.53525 39.5015 2.82015L25.4705 29.8453C25.1384 30.4847 24.4774 30.8859 23.7569 30.8859H22.212C20.7642 30.8859 19.8313 29.3508 20.4985 28.0658L34.5294 1.04059C34.8615 0.401097 35.5225 0 36.243 0H37.7888Z" fill="currentColor"/>
<path d="M37.7888 0C39.2365 0.00026313 40.1686 1.53525 39.5015 2.82015L25.4705 29.8453C25.1384 30.4847 24.4774 30.8859 23.7569 30.8859H22.212C20.7642 30.8859 19.8313 29.3508 20.4985 28.0658L34.5294 1.04059C34.8615 0.401097 35.5225 0 36.243 0H37.7888Z" fill="currentColor"/>
<path d="M12.7713 3.68636C13.4868 3.09125 14.5245 3.09119 15.2399 3.68636L15.8139 4.1633C16.7446 4.93762 16.7409 6.36836 15.8064 7.13803L6.6277 14.6983C6.15894 15.0844 6.15893 15.8015 6.6277 16.1876L15.8064 23.7479C16.7409 24.5175 16.7445 25.9473 15.8139 26.7217L15.2399 27.1995C14.5245 27.7947 13.4867 27.7946 12.7713 27.1995L0.869583 17.2979C-0.289877 16.3332 -0.289845 14.5528 0.869583 13.588L12.7713 3.68636Z" fill="currentColor"/>
<path d="M12.7713 3.68636C13.4868 3.09125 14.5245 3.09119 15.2399 3.68636L15.8139 4.1633C16.7446 4.93762 16.7409 6.36836 15.8064 7.13803L6.6277 14.6983C6.15894 15.0844 6.15893 15.8015 6.6277 16.1876L15.8064 23.7479C16.7409 24.5175 16.7445 25.9473 15.8139 26.7217L15.2399 27.1995C14.5245 27.7947 13.4867 27.7946 12.7713 27.1995L0.869583 17.2979C-0.289877 16.3332 -0.289845 14.5528 0.869583 13.588L12.7713 3.68636Z" fill="currentColor"/>
<path d="M12.7713 3.68636C13.4868 3.09125 14.5245 3.09119 15.2399 3.68636L15.8139 4.1633C16.7446 4.93762 16.7409 6.36836 15.8064 7.13803L6.6277 14.6983C6.15894 15.0844 6.15893 15.8015 6.6277 16.1876L15.8064 23.7479C16.7409 24.5175 16.7445 25.9473 15.8139 26.7217L15.2399 27.1995C14.5245 27.7947 13.4867 27.7946 12.7713 27.1995L0.869583 17.2979C-0.289877 16.3332 -0.289845 14.5528 0.869583 13.588L12.7713 3.68636Z" fill="currentColor"/>
<path d="M44.76 3.68636C45.4755 3.09109 46.5141 3.09109 47.2295 3.68636L59.1303 13.588C60.2899 14.5528 60.2899 16.3332 59.1303 17.2979L47.2295 27.1995C46.5141 27.7948 45.4755 27.7948 44.76 27.1995L44.186 26.7217C43.2555 25.9473 43.2591 24.5175 44.1935 23.7479L53.3732 16.1876C53.8414 15.8015 53.8413 15.0844 53.3732 14.6983L44.1935 7.13803C43.259 6.36836 43.2553 4.93762 44.186 4.1633L44.76 3.68636Z" fill="currentColor"/>
<path d="M44.76 3.68636C45.4755 3.09109 46.5141 3.09109 47.2295 3.68636L59.1303 13.588C60.2899 14.5528 60.2899 16.3332 59.1303 17.2979L47.2295 27.1995C46.5141 27.7948 45.4755 27.7948 44.76 27.1995L44.186 26.7217C43.2555 25.9473 43.2591 24.5175 44.1935 23.7479L53.3732 16.1876C53.8414 15.8015 53.8413 15.0844 53.3732 14.6983L44.1935 7.13803C43.259 6.36836 43.2553 4.93762 44.186 4.1633L44.76 3.68636Z" fill="currentColor"/>
<path d="M44.76 3.68636C45.4755 3.09109 46.5141 3.09109 47.2295 3.68636L59.1303 13.588C60.2899 14.5528 60.2899 16.3332 59.1303 17.2979L47.2295 27.1995C46.5141 27.7948 45.4755 27.7948 44.76 27.1995L44.186 26.7217C43.2555 25.9473 43.2591 24.5175 44.1935 23.7479L53.3732 16.1876C53.8414 15.8015 53.8413 15.0844 53.3732 14.6983L44.1935 7.13803C43.259 6.36836 43.2553 4.93762 44.186 4.1633L44.76 3.68636Z" fill="currentColor"/>
</svg>
