<svg width="62" height="60" viewBox="0 0 62 60" fill="currentColor" xmlns="http://www.w3.org/2000/svg">
<path d="M47.4738 24.878C47.7391 24.8781 47.9884 24.9879 48.1641 25.1867C52.1045 29.6467 61.866 41.3946 61.8664 48.337C61.8663 56.9913 54.0347 59.9704 53.9563 60H37.1784C37.1475 59.9884 29.2684 57.0178 29.2683 48.337C29.2687 41.3944 39.0304 29.6464 42.9707 25.1867C43.1464 24.9879 43.3955 24.878 43.6609 24.878C44.1743 24.8783 44.5898 25.295 44.5898 25.8084V39.9967C44.5897 40.6893 44.0906 41.2665 43.4694 41.573C41.9008 42.347 40.8216 43.9615 40.8213 45.8289C40.8213 48.4494 42.9455 50.5747 45.5659 50.575C48.1866 50.575 50.312 48.4496 50.312 45.8289C50.3117 43.9618 49.232 42.3472 47.6639 41.573C47.043 41.2663 46.5435 40.6892 46.5434 39.9967V25.8084C46.5434 25.2948 46.9602 24.878 47.4738 24.878Z" fill="currentColor"/>
<path d="M47.4738 24.878C47.7391 24.8781 47.9884 24.9879 48.1641 25.1867C52.1045 29.6467 61.866 41.3946 61.8664 48.337C61.8663 56.9913 54.0347 59.9704 53.9563 60H37.1784C37.1475 59.9884 29.2684 57.0178 29.2683 48.337C29.2687 41.3944 39.0304 29.6464 42.9707 25.1867C43.1464 24.9879 43.3955 24.878 43.6609 24.878C44.1743 24.8783 44.5898 25.295 44.5898 25.8084V39.9967C44.5897 40.6893 44.0906 41.2665 43.4694 41.573C41.9008 42.347 40.8216 43.9615 40.8213 45.8289C40.8213 48.4494 42.9455 50.5747 45.5659 50.575C48.1866 50.575 50.312 48.4496 50.312 45.8289C50.3117 43.9618 49.232 42.3472 47.6639 41.573C47.043 41.2663 46.5435 40.6892 46.5434 39.9967V25.8084C46.5434 25.2948 46.9602 24.878 47.4738 24.878Z" fill="currentColor"/>
<path d="M47.4738 24.878C47.7391 24.8781 47.9884 24.9879 48.1641 25.1867C52.1045 29.6467 61.866 41.3946 61.8664 48.337C61.8663 56.9913 54.0347 59.9704 53.9563 60H37.1784C37.1475 59.9884 29.2684 57.0178 29.2683 48.337C29.2687 41.3944 39.0304 29.6464 42.9707 25.1867C43.1464 24.9879 43.3955 24.878 43.6609 24.878C44.1743 24.8783 44.5898 25.295 44.5898 25.8084V39.9967C44.5897 40.6893 44.0906 41.2665 43.4694 41.573C41.9008 42.347 40.8216 43.9615 40.8213 45.8289C40.8213 48.4494 42.9455 50.5747 45.5659 50.575C48.1866 50.575 50.312 48.4496 50.312 45.8289C50.3117 43.9618 49.232 42.3472 47.6639 41.573C47.043 41.2663 46.5435 40.6892 46.5434 39.9967V25.8084C46.5434 25.2948 46.9602 24.878 47.4738 24.878Z" fill="currentColor"/>
<path d="M53.7805 16.0976C54.9928 16.0976 55.9756 17.0804 55.9756 18.2927V27.0732C55.9756 28.2855 54.9928 29.2683 53.7805 29.2683C52.5682 29.2683 51.5854 28.2855 51.5854 27.0732V20.4878H20.8537V51.2195H27.439C28.6514 51.2195 29.6341 52.2023 29.6341 53.4146C29.6341 54.627 28.6514 55.6098 27.439 55.6098H18.6585C17.4462 55.6098 16.4634 54.627 16.4634 53.4146V18.2927C16.4634 17.0804 17.4462 16.0976 18.6585 16.0976H53.7805Z" fill="currentColor"/>
<path d="M53.7805 16.0976C54.9928 16.0976 55.9756 17.0804 55.9756 18.2927V27.0732C55.9756 28.2855 54.9928 29.2683 53.7805 29.2683C52.5682 29.2683 51.5854 28.2855 51.5854 27.0732V20.4878H20.8537V51.2195H27.439C28.6514 51.2195 29.6341 52.2023 29.6341 53.4146C29.6341 54.627 28.6514 55.6098 27.439 55.6098H18.6585C17.4462 55.6098 16.4634 54.627 16.4634 53.4146V18.2927C16.4634 17.0804 17.4462 16.0976 18.6585 16.0976H53.7805Z" fill="currentColor"/>
<path d="M53.7805 16.0976C54.9928 16.0976 55.9756 17.0804 55.9756 18.2927V27.0732C55.9756 28.2855 54.9928 29.2683 53.7805 29.2683C52.5682 29.2683 51.5854 28.2855 51.5854 27.0732V20.4878H20.8537V51.2195H27.439C28.6514 51.2195 29.6341 52.2023 29.6341 53.4146C29.6341 54.627 28.6514 55.6098 27.439 55.6098H18.6585C17.4462 55.6098 16.4634 54.627 16.4634 53.4146V18.2927C16.4634 17.0804 17.4462 16.0976 18.6585 16.0976H53.7805Z" fill="currentColor"/>
<path d="M19.0244 0C19.8326 0 20.4878 0.655193 20.4878 1.46341V13.1707C20.4878 13.979 19.8326 14.6341 19.0244 14.6341H14.6341V19.0244C14.6341 19.8326 13.979 20.4878 13.1707 20.4878H1.46341C0.655193 20.4878 0 19.8326 0 19.0244C0 18.2162 0.655193 17.561 1.46341 17.561H11.7073V14.6341H7.31707C6.50885 14.6341 5.85366 13.979 5.85366 13.1707C5.85366 12.3625 6.50885 11.7073 7.31707 11.7073H11.7073V7.31707C11.7073 6.50885 12.3625 5.85366 13.1707 5.85366C13.979 5.85366 14.6341 6.50885 14.6341 7.31707V11.7073H17.561V1.46341C17.561 0.655193 18.2162 0 19.0244 0Z" fill="currentColor"/>
<path d="M19.0244 0C19.8326 0 20.4878 0.655193 20.4878 1.46341V13.1707C20.4878 13.979 19.8326 14.6341 19.0244 14.6341H14.6341V19.0244C14.6341 19.8326 13.979 20.4878 13.1707 20.4878H1.46341C0.655193 20.4878 0 19.8326 0 19.0244C0 18.2162 0.655193 17.561 1.46341 17.561H11.7073V14.6341H7.31707C6.50885 14.6341 5.85366 13.979 5.85366 13.1707C5.85366 12.3625 6.50885 11.7073 7.31707 11.7073H11.7073V7.31707C11.7073 6.50885 12.3625 5.85366 13.1707 5.85366C13.979 5.85366 14.6341 6.50885 14.6341 7.31707V11.7073H17.561V1.46341C17.561 0.655193 18.2162 0 19.0244 0Z" fill="currentColor"/>
<path d="M19.0244 0C19.8326 0 20.4878 0.655193 20.4878 1.46341V13.1707C20.4878 13.979 19.8326 14.6341 19.0244 14.6341H14.6341V19.0244C14.6341 19.8326 13.979 20.4878 13.1707 20.4878H1.46341C0.655193 20.4878 0 19.8326 0 19.0244C0 18.2162 0.655193 17.561 1.46341 17.561H11.7073V14.6341H7.31707C6.50885 14.6341 5.85366 13.979 5.85366 13.1707C5.85366 12.3625 6.50885 11.7073 7.31707 11.7073H11.7073V7.31707C11.7073 6.50885 12.3625 5.85366 13.1707 5.85366C13.979 5.85366 14.6341 6.50885 14.6341 7.31707V11.7073H17.561V1.46341C17.561 0.655193 18.2162 0 19.0244 0Z" fill="currentColor"/>
<path d="M36.2195 5.85366C37.0277 5.85366 37.6829 6.50885 37.6829 7.31707V9.05488H43.5366C44.3448 9.05488 45 9.71007 45 10.5183C45 11.3265 44.3448 11.9817 43.5366 11.9817H37.6829V13.1707C37.6829 13.979 37.0277 14.6341 36.2195 14.6341C35.4113 14.6341 34.7561 13.979 34.7561 13.1707V11.9817H28.9024C28.0942 11.9817 27.439 11.3265 27.439 10.5183C27.439 9.71007 28.0942 9.05488 28.9024 9.05488H34.7561V7.31707C34.7561 6.50885 35.4113 5.85366 36.2195 5.85366Z" fill="currentColor"/>
<path d="M36.2195 5.85366C37.0277 5.85366 37.6829 6.50885 37.6829 7.31707V9.05488H43.5366C44.3448 9.05488 45 9.71007 45 10.5183C45 11.3265 44.3448 11.9817 43.5366 11.9817H37.6829V13.1707C37.6829 13.979 37.0277 14.6341 36.2195 14.6341C35.4113 14.6341 34.7561 13.979 34.7561 13.1707V11.9817H28.9024C28.0942 11.9817 27.439 11.3265 27.439 10.5183C27.439 9.71007 28.0942 9.05488 28.9024 9.05488H34.7561V7.31707C34.7561 6.50885 35.4113 5.85366 36.2195 5.85366Z" fill="currentColor"/>
<path d="M36.2195 5.85366C37.0277 5.85366 37.6829 6.50885 37.6829 7.31707V9.05488H43.5366C44.3448 9.05488 45 9.71007 45 10.5183C45 11.3265 44.3448 11.9817 43.5366 11.9817H37.6829V13.1707C37.6829 13.979 37.0277 14.6341 36.2195 14.6341C35.4113 14.6341 34.7561 13.979 34.7561 13.1707V11.9817H28.9024C28.0942 11.9817 27.439 11.3265 27.439 10.5183C27.439 9.71007 28.0942 9.05488 28.9024 9.05488H34.7561V7.31707C34.7561 6.50885 35.4113 5.85366 36.2195 5.85366Z" fill="currentColor"/>
</svg>
