<svg width="68" height="60" viewBox="0 0 68 60" fill="currentColor" xmlns="http://www.w3.org/2000/svg">
<path d="M21.0951 19.3914C32.7451 19.3919 42.1901 28.8363 42.1901 40.4865C42.1901 45.3578 40.5364 49.85 37.761 53.4216C37.1713 54.1802 36.166 54.4233 35.3157 54.085C35.2435 54.5194 35.145 54.951 35.0129 55.3643L34.9737 55.4837L34.9222 55.5991C34.3384 56.8735 33.4878 58.1521 32.3121 59.2784L32.0855 59.4947L31.8074 59.6368C31.0322 60.0302 30.2753 59.9995 30.0564 59.9994C28.8918 59.999 27.9471 59.0545 27.9468 57.8899C27.947 56.8089 28.7611 55.9176 29.8091 55.7948C30.3226 55.2189 30.7218 54.5942 31.0246 53.9614C31.1643 53.4746 31.2455 52.8825 31.2388 52.3133C31.231 51.6537 31.1165 51.2749 31.072 51.1864C30.7747 50.5957 30.1175 49.9275 29.2529 49.4498C28.5761 49.0761 28.0773 48.7984 27.6069 48.6114C27.1548 48.4317 26.9072 48.4132 26.7726 48.428C25.9286 48.5231 25.0938 48.709 24.2202 48.8977C23.4491 49.0643 22.4501 49.2831 21.5936 49.2747C20.7393 49.266 19.6138 48.8364 19.0432 47.7441C18.8779 47.4274 18.7314 47.1026 18.6086 46.8273C18.4776 46.5339 18.3718 46.293 18.2584 46.061C18.0255 45.585 17.8617 45.3664 17.7454 45.2617C17.553 45.0889 17.3252 44.9648 17.0718 44.8971C17.0653 44.8959 16.9849 44.878 16.8328 44.8682C16.6776 44.8583 16.4944 44.8598 16.3137 44.8765C16.1309 44.8934 15.9818 44.9239 15.8769 44.9568C15.8355 44.9699 15.8083 44.9815 15.7945 44.9877C15.5221 45.2074 15.3764 45.3479 15.2816 45.4698C15.2028 45.5713 15.1417 45.6802 15.1003 45.8529C14.997 46.2858 14.9667 46.9138 15.5473 49.4745C15.7517 50.3759 16.2204 51.1299 16.9791 52.1423C17.6769 53.0744 17.4862 54.3958 16.5547 55.0944C15.6225 55.7926 14.3013 55.6039 13.6026 54.6721C12.7844 53.5803 11.844 52.2277 11.4313 50.4077C10.8634 47.9031 10.6382 46.3767 10.9966 44.8744C11.393 43.2142 12.4093 42.2929 13.1803 41.6751C14.0713 40.9616 15.181 40.745 15.9264 40.676C16.7057 40.604 17.5357 40.6546 18.1574 40.8202C19.0574 41.0602 19.8783 41.5069 20.5636 42.1222C21.296 42.7799 21.7475 43.5925 22.0489 44.209C22.1746 44.4662 22.2909 44.73 22.3929 44.9589C22.6422 44.9133 22.9506 44.8555 23.3302 44.7735C24.145 44.5975 25.2016 44.3595 26.2988 44.2358C27.3899 44.113 28.3755 44.3776 29.1643 44.6911C29.9366 44.998 30.6949 45.4261 31.2924 45.7561C32.7149 46.5418 34.0747 47.7703 34.8398 49.2912C34.9389 49.4882 35.0192 49.6965 35.0912 49.9092C36.9068 47.218 37.9711 43.9797 37.9711 40.4865C37.9711 31.1664 30.415 23.6109 21.0951 23.6104C11.7747 23.6104 4.21901 31.1661 4.21901 40.4865C4.21901 44.3876 5.53971 47.9746 7.76027 50.8321C8.47459 51.7518 8.30869 53.0775 7.38945 53.7924C6.4698 54.5069 5.14411 54.3408 4.42914 53.4216C1.65352 49.85 0 45.358 0 40.4865C0 28.836 9.44458 19.3914 21.0951 19.3914Z" fill="currentColor"/>
<path d="M21.0951 19.3914C32.7451 19.3919 42.1901 28.8363 42.1901 40.4865C42.1901 45.3578 40.5364 49.85 37.761 53.4216C37.1713 54.1802 36.166 54.4233 35.3157 54.085C35.2435 54.5194 35.145 54.951 35.0129 55.3643L34.9737 55.4837L34.9222 55.5991C34.3384 56.8735 33.4878 58.1521 32.3121 59.2784L32.0855 59.4947L31.8074 59.6368C31.0322 60.0302 30.2753 59.9995 30.0564 59.9994C28.8918 59.999 27.9471 59.0545 27.9468 57.8899C27.947 56.8089 28.7611 55.9176 29.8091 55.7948C30.3226 55.2189 30.7218 54.5942 31.0246 53.9614C31.1643 53.4746 31.2455 52.8825 31.2388 52.3133C31.231 51.6537 31.1165 51.2749 31.072 51.1864C30.7747 50.5957 30.1175 49.9275 29.2529 49.4498C28.5761 49.0761 28.0773 48.7984 27.6069 48.6114C27.1548 48.4317 26.9072 48.4132 26.7726 48.428C25.9286 48.5231 25.0938 48.709 24.2202 48.8977C23.4491 49.0643 22.4501 49.2831 21.5936 49.2747C20.7393 49.266 19.6138 48.8364 19.0432 47.7441C18.8779 47.4274 18.7314 47.1026 18.6086 46.8273C18.4776 46.5339 18.3718 46.293 18.2584 46.061C18.0255 45.585 17.8617 45.3664 17.7454 45.2617C17.553 45.0889 17.3252 44.9648 17.0718 44.8971C17.0653 44.8959 16.9849 44.878 16.8328 44.8682C16.6776 44.8583 16.4944 44.8598 16.3137 44.8765C16.1309 44.8934 15.9818 44.9239 15.8769 44.9568C15.8355 44.9699 15.8083 44.9815 15.7945 44.9877C15.5221 45.2074 15.3764 45.3479 15.2816 45.4698C15.2028 45.5713 15.1417 45.6802 15.1003 45.8529C14.997 46.2858 14.9667 46.9138 15.5473 49.4745C15.7517 50.3759 16.2204 51.1299 16.9791 52.1423C17.6769 53.0744 17.4862 54.3958 16.5547 55.0944C15.6225 55.7926 14.3013 55.6039 13.6026 54.6721C12.7844 53.5803 11.844 52.2277 11.4313 50.4077C10.8634 47.9031 10.6382 46.3767 10.9966 44.8744C11.393 43.2142 12.4093 42.2929 13.1803 41.6751C14.0713 40.9616 15.181 40.745 15.9264 40.676C16.7057 40.604 17.5357 40.6546 18.1574 40.8202C19.0574 41.0602 19.8783 41.5069 20.5636 42.1222C21.296 42.7799 21.7475 43.5925 22.0489 44.209C22.1746 44.4662 22.2909 44.73 22.3929 44.9589C22.6422 44.9133 22.9506 44.8555 23.3302 44.7735C24.145 44.5975 25.2016 44.3595 26.2988 44.2358C27.3899 44.113 28.3755 44.3776 29.1643 44.6911C29.9366 44.998 30.6949 45.4261 31.2924 45.7561C32.7149 46.5418 34.0747 47.7703 34.8398 49.2912C34.9389 49.4882 35.0192 49.6965 35.0912 49.9092C36.9068 47.218 37.9711 43.9797 37.9711 40.4865C37.9711 31.1664 30.415 23.6109 21.0951 23.6104C11.7747 23.6104 4.21901 31.1661 4.21901 40.4865C4.21901 44.3876 5.53971 47.9746 7.76027 50.8321C8.47459 51.7518 8.30869 53.0775 7.38945 53.7924C6.4698 54.5069 5.14411 54.3408 4.42914 53.4216C1.65352 49.85 0 45.358 0 40.4865C0 28.836 9.44458 19.3914 21.0951 19.3914Z" fill="currentColor"/>
<path d="M21.0951 19.3914C32.7451 19.3919 42.1901 28.8363 42.1901 40.4865C42.1901 45.3578 40.5364 49.85 37.761 53.4216C37.1713 54.1802 36.166 54.4233 35.3157 54.085C35.2435 54.5194 35.145 54.951 35.0129 55.3643L34.9737 55.4837L34.9222 55.5991C34.3384 56.8735 33.4878 58.1521 32.3121 59.2784L32.0855 59.4947L31.8074 59.6368C31.0322 60.0302 30.2753 59.9995 30.0564 59.9994C28.8918 59.999 27.9471 59.0545 27.9468 57.8899C27.947 56.8089 28.7611 55.9176 29.8091 55.7948C30.3226 55.2189 30.7218 54.5942 31.0246 53.9614C31.1643 53.4746 31.2455 52.8825 31.2388 52.3133C31.231 51.6537 31.1165 51.2749 31.072 51.1864C30.7747 50.5957 30.1175 49.9275 29.2529 49.4498C28.5761 49.0761 28.0773 48.7984 27.6069 48.6114C27.1548 48.4317 26.9072 48.4132 26.7726 48.428C25.9286 48.5231 25.0938 48.709 24.2202 48.8977C23.4491 49.0643 22.4501 49.2831 21.5936 49.2747C20.7393 49.266 19.6138 48.8364 19.0432 47.7441C18.8779 47.4274 18.7314 47.1026 18.6086 46.8273C18.4776 46.5339 18.3718 46.293 18.2584 46.061C18.0255 45.585 17.8617 45.3664 17.7454 45.2617C17.553 45.0889 17.3252 44.9648 17.0718 44.8971C17.0653 44.8959 16.9849 44.878 16.8328 44.8682C16.6776 44.8583 16.4944 44.8598 16.3137 44.8765C16.1309 44.8934 15.9818 44.9239 15.8769 44.9568C15.8355 44.9699 15.8083 44.9815 15.7945 44.9877C15.5221 45.2074 15.3764 45.3479 15.2816 45.4698C15.2028 45.5713 15.1417 45.6802 15.1003 45.8529C14.997 46.2858 14.9667 46.9138 15.5473 49.4745C15.7517 50.3759 16.2204 51.1299 16.9791 52.1423C17.6769 53.0744 17.4862 54.3958 16.5547 55.0944C15.6225 55.7926 14.3013 55.6039 13.6026 54.6721C12.7844 53.5803 11.844 52.2277 11.4313 50.4077C10.8634 47.9031 10.6382 46.3767 10.9966 44.8744C11.393 43.2142 12.4093 42.2929 13.1803 41.6751C14.0713 40.9616 15.181 40.745 15.9264 40.676C16.7057 40.604 17.5357 40.6546 18.1574 40.8202C19.0574 41.0602 19.8783 41.5069 20.5636 42.1222C21.296 42.7799 21.7475 43.5925 22.0489 44.209C22.1746 44.4662 22.2909 44.73 22.3929 44.9589C22.6422 44.9133 22.9506 44.8555 23.3302 44.7735C24.145 44.5975 25.2016 44.3595 26.2988 44.2358C27.3899 44.113 28.3755 44.3776 29.1643 44.6911C29.9366 44.998 30.6949 45.4261 31.2924 45.7561C32.7149 46.5418 34.0747 47.7703 34.8398 49.2912C34.9389 49.4882 35.0192 49.6965 35.0912 49.9092C36.9068 47.218 37.9711 43.9797 37.9711 40.4865C37.9711 31.1664 30.415 23.6109 21.0951 23.6104C11.7747 23.6104 4.21901 31.1661 4.21901 40.4865C4.21901 44.3876 5.53971 47.9746 7.76027 50.8321C8.47459 51.7518 8.30869 53.0775 7.38945 53.7924C6.4698 54.5069 5.14411 54.3408 4.42914 53.4216C1.65352 49.85 0 45.358 0 40.4865C0 28.836 9.44458 19.3914 21.0951 19.3914Z" fill="currentColor"/>
<path fill-rule="evenodd" clip-rule="evenodd" d="M55.6877 23.769C56.0357 23.769 57.1952 23.8853 57.1957 24.9289C57.1957 25.2073 56.9177 26.2988 56.8248 26.7397C58.7274 26.6236 60.7696 26.368 61.6516 26.2288C61.9996 26.1823 64.0884 25.8806 64.274 25.8806C65.2022 25.8806 65.5966 26.5775 65.5966 27.3432C65.5964 28.3871 64.8531 28.5966 64.2267 28.7359C63.8528 28.8061 61.9019 29.2225 56.246 29.5702C56.1764 30.0806 56.1523 30.1969 56.0132 31.2636C56.8253 31.1243 57.5217 31.0081 58.8211 31.0081C65.2718 31.0081 67.2219 34.6058 67.222 37.7383C67.222 43.145 61.4424 44.3285 60.259 44.3285C58.9143 44.3281 58.8911 43.0302 58.8911 42.8205C58.8911 41.8459 59.5176 41.7056 59.7728 41.636C61.4667 41.2647 64.181 40.6387 64.1813 37.623C64.1813 35.0938 62.3017 34.3277 61.8143 34.1188C60.8398 36.184 59.7017 38.5734 57.1957 40.917C56.0818 41.9612 53.8319 43.7474 51.2565 43.7476C49.0289 43.7476 47.1714 42.2168 47.1714 39.4091C47.1715 35.8127 50.2116 33.1908 53.228 32.0072C53.3208 30.731 53.3453 30.3817 53.4381 29.6855C52.4639 29.7087 50.1676 29.7556 49.4704 29.6629C49.0295 29.6165 48.2632 29.5002 48.2632 28.1776C48.2867 26.7627 49.3072 26.7623 49.7712 26.7623C50.2351 26.7623 53.2026 26.8549 53.8542 26.855C54.3182 24.2569 54.5745 23.7692 55.6877 23.769ZM53.1353 34.9779C51.326 35.9523 50.0045 37.5756 50.004 39.269C50.004 39.5706 50.0728 40.894 51.4646 40.8944C52.0909 40.8944 52.7643 40.7092 53.6688 40.1527C53.344 38.6215 53.1353 36.6948 53.1353 34.9779ZM59.1218 33.5852C57.5212 33.5389 56.5697 33.7463 55.8504 33.9087C55.8504 34.5352 55.8501 36.4626 56.1285 38.1565C57.2654 36.9733 58.4257 35.2094 59.1218 33.5852Z" fill="currentColor"/>
<path fill-rule="evenodd" clip-rule="evenodd" d="M55.6877 23.769C56.0357 23.769 57.1952 23.8853 57.1957 24.9289C57.1957 25.2073 56.9177 26.2988 56.8248 26.7397C58.7274 26.6236 60.7696 26.368 61.6516 26.2288C61.9996 26.1823 64.0884 25.8806 64.274 25.8806C65.2022 25.8806 65.5966 26.5775 65.5966 27.3432C65.5964 28.3871 64.8531 28.5966 64.2267 28.7359C63.8528 28.8061 61.9019 29.2225 56.246 29.5702C56.1764 30.0806 56.1523 30.1969 56.0132 31.2636C56.8253 31.1243 57.5217 31.0081 58.8211 31.0081C65.2718 31.0081 67.2219 34.6058 67.222 37.7383C67.222 43.145 61.4424 44.3285 60.259 44.3285C58.9143 44.3281 58.8911 43.0302 58.8911 42.8205C58.8911 41.8459 59.5176 41.7056 59.7728 41.636C61.4667 41.2647 64.181 40.6387 64.1813 37.623C64.1813 35.0938 62.3017 34.3277 61.8143 34.1188C60.8398 36.184 59.7017 38.5734 57.1957 40.917C56.0818 41.9612 53.8319 43.7474 51.2565 43.7476C49.0289 43.7476 47.1714 42.2168 47.1714 39.4091C47.1715 35.8127 50.2116 33.1908 53.228 32.0072C53.3208 30.731 53.3453 30.3817 53.4381 29.6855C52.4639 29.7087 50.1676 29.7556 49.4704 29.6629C49.0295 29.6165 48.2632 29.5002 48.2632 28.1776C48.2867 26.7627 49.3072 26.7623 49.7712 26.7623C50.2351 26.7623 53.2026 26.8549 53.8542 26.855C54.3182 24.2569 54.5745 23.7692 55.6877 23.769ZM53.1353 34.9779C51.326 35.9523 50.0045 37.5756 50.004 39.269C50.004 39.5706 50.0728 40.894 51.4646 40.8944C52.0909 40.8944 52.7643 40.7092 53.6688 40.1527C53.344 38.6215 53.1353 36.6948 53.1353 34.9779ZM59.1218 33.5852C57.5212 33.5389 56.5697 33.7463 55.8504 33.9087C55.8504 34.5352 55.8501 36.4626 56.1285 38.1565C57.2654 36.9733 58.4257 35.2094 59.1218 33.5852Z" fill="currentColor"/>
<path fill-rule="evenodd" clip-rule="evenodd" d="M55.6877 23.769C56.0357 23.769 57.1952 23.8853 57.1957 24.9289C57.1957 25.2073 56.9177 26.2988 56.8248 26.7397C58.7274 26.6236 60.7696 26.368 61.6516 26.2288C61.9996 26.1823 64.0884 25.8806 64.274 25.8806C65.2022 25.8806 65.5966 26.5775 65.5966 27.3432C65.5964 28.3871 64.8531 28.5966 64.2267 28.7359C63.8528 28.8061 61.9019 29.2225 56.246 29.5702C56.1764 30.0806 56.1523 30.1969 56.0132 31.2636C56.8253 31.1243 57.5217 31.0081 58.8211 31.0081C65.2718 31.0081 67.2219 34.6058 67.222 37.7383C67.222 43.145 61.4424 44.3285 60.259 44.3285C58.9143 44.3281 58.8911 43.0302 58.8911 42.8205C58.8911 41.8459 59.5176 41.7056 59.7728 41.636C61.4667 41.2647 64.181 40.6387 64.1813 37.623C64.1813 35.0938 62.3017 34.3277 61.8143 34.1188C60.8398 36.184 59.7017 38.5734 57.1957 40.917C56.0818 41.9612 53.8319 43.7474 51.2565 43.7476C49.0289 43.7476 47.1714 42.2168 47.1714 39.4091C47.1715 35.8127 50.2116 33.1908 53.228 32.0072C53.3208 30.731 53.3453 30.3817 53.4381 29.6855C52.4639 29.7087 50.1676 29.7556 49.4704 29.6629C49.0295 29.6165 48.2632 29.5002 48.2632 28.1776C48.2867 26.7627 49.3072 26.7623 49.7712 26.7623C50.2351 26.7623 53.2026 26.8549 53.8542 26.855C54.3182 24.2569 54.5745 23.7692 55.6877 23.769ZM53.1353 34.9779C51.326 35.9523 50.0045 37.5756 50.004 39.269C50.004 39.5706 50.0728 40.894 51.4646 40.8944C52.0909 40.8944 52.7643 40.7092 53.6688 40.1527C53.344 38.6215 53.1353 36.6948 53.1353 34.9779ZM59.1218 33.5852C57.5212 33.5389 56.5697 33.7463 55.8504 33.9087C55.8504 34.5352 55.8501 36.4626 56.1285 38.1565C57.2654 36.9733 58.4257 35.2094 59.1218 33.5852Z" fill="currentColor"/>
<path d="M22.9368 38.1133C24.1018 38.1133 25.0463 39.0577 25.0463 40.2228C25.0463 41.3878 24.1018 42.3323 22.9368 42.3323H22.6731C21.508 42.3323 20.5636 41.3878 20.5636 40.2228C20.5636 39.0577 21.508 38.1133 22.6731 38.1133H22.9368Z" fill="currentColor"/>
<path d="M22.9368 38.1133C24.1018 38.1133 25.0463 39.0577 25.0463 40.2228C25.0463 41.3878 24.1018 42.3323 22.9368 42.3323H22.6731C21.508 42.3323 20.5636 41.3878 20.5636 40.2228C20.5636 39.0577 21.508 38.1133 22.6731 38.1133H22.9368Z" fill="currentColor"/>
<path d="M22.9368 38.1133C24.1018 38.1133 25.0463 39.0577 25.0463 40.2228C25.0463 41.3878 24.1018 42.3323 22.9368 42.3323H22.6731C21.508 42.3323 20.5636 41.3878 20.5636 40.2228C20.5636 39.0577 21.508 38.1133 22.6731 38.1133H22.9368Z" fill="currentColor"/>
<path d="M31.7477 32.0958C32.2221 32.1499 32.7904 32.3574 33.2474 32.8251L33.4369 33.0435L33.5914 33.268C33.7296 33.4946 33.8214 33.7238 33.8778 33.9313C33.9486 34.1924 34.0082 34.5787 33.9272 35.0191C33.8517 35.4283 33.5312 36.371 32.4543 36.7289C32.0297 36.8699 31.644 36.8572 31.3254 36.7928C30.5701 36.7744 29.8493 36.3515 29.4878 35.6288C29.471 35.5955 29.3253 35.3191 29.2385 35.017C29.1745 34.7935 28.891 33.7013 29.7618 32.7901L30.0275 32.5532C30.6625 32.0673 31.3826 32.0543 31.7477 32.0958Z" fill="currentColor"/>
<path d="M31.7477 32.0958C32.2221 32.1499 32.7904 32.3574 33.2474 32.8251L33.4369 33.0435L33.5914 33.268C33.7296 33.4946 33.8214 33.7238 33.8778 33.9313C33.9486 34.1924 34.0082 34.5787 33.9272 35.0191C33.8517 35.4283 33.5312 36.371 32.4543 36.7289C32.0297 36.8699 31.644 36.8572 31.3254 36.7928C30.5701 36.7744 29.8493 36.3515 29.4878 35.6288C29.471 35.5955 29.3253 35.3191 29.2385 35.017C29.1745 34.7935 28.891 33.7013 29.7618 32.7901L30.0275 32.5532C30.6625 32.0673 31.3826 32.0543 31.7477 32.0958Z" fill="currentColor"/>
<path d="M31.7477 32.0958C32.2221 32.1499 32.7904 32.3574 33.2474 32.8251L33.4369 33.0435L33.5914 33.268C33.7296 33.4946 33.8214 33.7238 33.8778 33.9313C33.9486 34.1924 34.0082 34.5787 33.9272 35.0191C33.8517 35.4283 33.5312 36.371 32.4543 36.7289C32.0297 36.8699 31.644 36.8572 31.3254 36.7928C30.5701 36.7744 29.8493 36.3515 29.4878 35.6288C29.471 35.5955 29.3253 35.3191 29.2385 35.017C29.1745 34.7935 28.891 33.7013 29.7618 32.7901L30.0275 32.5532C30.6625 32.0673 31.3826 32.0543 31.7477 32.0958Z" fill="currentColor"/>
<path d="M13.1968 29.4425C13.7709 28.9519 14.4434 28.884 14.919 28.9625C15.3267 29.03 15.6131 29.1997 15.7389 29.2818C16.0002 29.4526 16.1663 29.6449 16.2251 29.7144C16.3748 29.8916 16.4838 30.072 16.5567 30.2129C16.6324 30.3591 16.7241 30.5658 16.7854 30.8145C16.8304 30.9975 16.9394 31.5204 16.7298 32.1267C16.6914 32.2665 16.639 32.4019 16.5732 32.5305C16.4983 32.6931 16.3962 32.8902 16.258 33.0764C15.8968 33.5632 15.4329 33.858 14.9787 34.0467C13.9031 34.4934 12.6695 33.9828 12.2224 32.9075C12.0697 32.5398 12.0312 32.1537 12.0864 31.7868C12.0614 31.6217 12.0535 31.457 12.0658 31.2986C12.1025 30.8316 12.2833 30.4949 12.3625 30.3592C12.5275 30.0764 12.7322 29.8715 12.8157 29.7885C12.9311 29.6738 13.0627 29.5571 13.1968 29.4425Z" fill="currentColor"/>
<path d="M13.1968 29.4425C13.7709 28.9519 14.4434 28.884 14.919 28.9625C15.3267 29.03 15.6131 29.1997 15.7389 29.2818C16.0002 29.4526 16.1663 29.6449 16.2251 29.7144C16.3748 29.8916 16.4838 30.072 16.5567 30.2129C16.6324 30.3591 16.7241 30.5658 16.7854 30.8145C16.8304 30.9975 16.9394 31.5204 16.7298 32.1267C16.6914 32.2665 16.639 32.4019 16.5732 32.5305C16.4983 32.6931 16.3962 32.8902 16.258 33.0764C15.8968 33.5632 15.4329 33.858 14.9787 34.0467C13.9031 34.4934 12.6695 33.9828 12.2224 32.9075C12.0697 32.5398 12.0312 32.1537 12.0864 31.7868C12.0614 31.6217 12.0535 31.457 12.0658 31.2986C12.1025 30.8316 12.2833 30.4949 12.3625 30.3592C12.5275 30.0764 12.7322 29.8715 12.8157 29.7885C12.9311 29.6738 13.0627 29.5571 13.1968 29.4425Z" fill="currentColor"/>
<path d="M13.1968 29.4425C13.7709 28.9519 14.4434 28.884 14.919 28.9625C15.3267 29.03 15.6131 29.1997 15.7389 29.2818C16.0002 29.4526 16.1663 29.6449 16.2251 29.7144C16.3748 29.8916 16.4838 30.072 16.5567 30.2129C16.6324 30.3591 16.7241 30.5658 16.7854 30.8145C16.8304 30.9975 16.9394 31.5204 16.7298 32.1267C16.6914 32.2665 16.639 32.4019 16.5732 32.5305C16.4983 32.6931 16.3962 32.8902 16.258 33.0764C15.8968 33.5632 15.4329 33.858 14.9787 34.0467C13.9031 34.4934 12.6695 33.9828 12.2224 32.9075C12.0697 32.5398 12.0312 32.1537 12.0864 31.7868C12.0614 31.6217 12.0535 31.457 12.0658 31.2986C12.1025 30.8316 12.2833 30.4949 12.3625 30.3592C12.5275 30.0764 12.7322 29.8715 12.8157 29.7885C12.9311 29.6738 13.0627 29.5571 13.1968 29.4425Z" fill="currentColor"/>
<path fill-rule="evenodd" clip-rule="evenodd" d="M41.7637 0C42.3597 0 42.8549 0.115382 43.249 0.346091C43.6528 0.567199 43.9748 0.855628 44.2152 1.21132C44.4651 1.56702 44.6718 1.95158 44.8353 2.36496C45.0083 2.76872 45.2246 3.31191 45.4842 3.99447L51.0072 17.6362C51.4398 18.6745 51.6561 19.4292 51.6561 19.9002C51.6561 20.3905 51.4494 20.8424 51.0361 21.2558C50.6323 21.6595 50.142 21.8614 49.5652 21.8614C49.2287 21.8614 48.9403 21.7989 48.6999 21.6739C48.4596 21.5586 48.2577 21.3999 48.0943 21.1981C47.9309 20.9866 47.753 20.6693 47.5607 20.2463C47.3781 19.8137 47.2194 19.434 47.0849 19.1071L46.0754 16.4537H37.4808L36.4714 19.1648C36.0772 20.2223 35.7408 20.9385 35.462 21.3134C35.1832 21.6787 34.7265 21.8614 34.092 21.8614C33.5537 21.8614 33.0778 21.6643 32.6644 21.2702C32.251 20.876 32.0443 20.429 32.0443 19.9291C32.0443 19.6407 32.0924 19.3426 32.1885 19.035C32.2847 18.7274 32.4433 18.2996 32.6644 17.7516L38.0721 4.02331C38.2259 3.62915 38.4086 3.15807 38.62 2.6101C38.8412 2.05253 39.0719 1.59105 39.3122 1.22574C39.5622 0.860436 39.8843 0.567202 40.2784 0.346091C40.6822 0.115372 41.1773 8.44264e-06 41.7637 0ZM38.6056 13.238H44.9218L41.7349 4.5136L38.6056 13.238Z" fill="currentColor"/>
<path fill-rule="evenodd" clip-rule="evenodd" d="M41.7637 0C42.3597 0 42.8549 0.115382 43.249 0.346091C43.6528 0.567199 43.9748 0.855628 44.2152 1.21132C44.4651 1.56702 44.6718 1.95158 44.8353 2.36496C45.0083 2.76872 45.2246 3.31191 45.4842 3.99447L51.0072 17.6362C51.4398 18.6745 51.6561 19.4292 51.6561 19.9002C51.6561 20.3905 51.4494 20.8424 51.0361 21.2558C50.6323 21.6595 50.142 21.8614 49.5652 21.8614C49.2287 21.8614 48.9403 21.7989 48.6999 21.6739C48.4596 21.5586 48.2577 21.3999 48.0943 21.1981C47.9309 20.9866 47.753 20.6693 47.5607 20.2463C47.3781 19.8137 47.2194 19.434 47.0849 19.1071L46.0754 16.4537H37.4808L36.4714 19.1648C36.0772 20.2223 35.7408 20.9385 35.462 21.3134C35.1832 21.6787 34.7265 21.8614 34.092 21.8614C33.5537 21.8614 33.0778 21.6643 32.6644 21.2702C32.251 20.876 32.0443 20.429 32.0443 19.9291C32.0443 19.6407 32.0924 19.3426 32.1885 19.035C32.2847 18.7274 32.4433 18.2996 32.6644 17.7516L38.0721 4.02331C38.2259 3.62915 38.4086 3.15807 38.62 2.6101C38.8412 2.05253 39.0719 1.59105 39.3122 1.22574C39.5622 0.860436 39.8843 0.567202 40.2784 0.346091C40.6822 0.115372 41.1773 8.44264e-06 41.7637 0ZM38.6056 13.238H44.9218L41.7349 4.5136L38.6056 13.238Z" fill="currentColor"/>
<path fill-rule="evenodd" clip-rule="evenodd" d="M41.7637 0C42.3597 0 42.8549 0.115382 43.249 0.346091C43.6528 0.567199 43.9748 0.855628 44.2152 1.21132C44.4651 1.56702 44.6718 1.95158 44.8353 2.36496C45.0083 2.76872 45.2246 3.31191 45.4842 3.99447L51.0072 17.6362C51.4398 18.6745 51.6561 19.4292 51.6561 19.9002C51.6561 20.3905 51.4494 20.8424 51.0361 21.2558C50.6323 21.6595 50.142 21.8614 49.5652 21.8614C49.2287 21.8614 48.9403 21.7989 48.6999 21.6739C48.4596 21.5586 48.2577 21.3999 48.0943 21.1981C47.9309 20.9866 47.753 20.6693 47.5607 20.2463C47.3781 19.8137 47.2194 19.434 47.0849 19.1071L46.0754 16.4537H37.4808L36.4714 19.1648C36.0772 20.2223 35.7408 20.9385 35.462 21.3134C35.1832 21.6787 34.7265 21.8614 34.092 21.8614C33.5537 21.8614 33.0778 21.6643 32.6644 21.2702C32.251 20.876 32.0443 20.429 32.0443 19.9291C32.0443 19.6407 32.0924 19.3426 32.1885 19.035C32.2847 18.7274 32.4433 18.2996 32.6644 17.7516L38.0721 4.02331C38.2259 3.62915 38.4086 3.15807 38.62 2.6101C38.8412 2.05253 39.0719 1.59105 39.3122 1.22574C39.5622 0.860436 39.8843 0.567202 40.2784 0.346091C40.6822 0.115372 41.1773 8.44264e-06 41.7637 0ZM38.6056 13.238H44.9218L41.7349 4.5136L38.6056 13.238Z" fill="currentColor"/>
</svg>
