<svg width="30" height="30" viewBox="0 0 30 30" fill="currentColor" xmlns="http://www.w3.org/2000/svg">
<path fill-rule="evenodd" clip-rule="evenodd" d="M13.7762 4C19.1754 4 23.5524 8.37695 23.5524 13.7762C23.5524 15.8894 22.8814 17.8456 21.7416 19.4445L25.5159 23.2187C26.1521 23.855 26.152 24.8865 25.5159 25.5228C24.8796 26.1591 23.8476 26.1591 23.2113 25.5228L19.436 21.7474C17.8387 22.8836 15.8857 23.5524 13.7762 23.5524C8.37695 23.5524 4 19.1754 4 13.7762C4 8.37695 8.37695 4 13.7762 4ZM13.7762 7.25873C10.1767 7.25873 7.25873 10.1767 7.25873 13.7762C7.25873 17.3757 10.1767 20.2936 13.7762 20.2936C17.3757 20.2936 20.2936 17.3757 20.2936 13.7762C20.2936 10.1767 17.3757 7.25873 13.7762 7.25873Z" fill="currentColor"/>
<path fill-rule="evenodd" clip-rule="evenodd" d="M13.7762 4C19.1754 4 23.5524 8.37695 23.5524 13.7762C23.5524 15.8894 22.8814 17.8456 21.7416 19.4445L25.5159 23.2187C26.1521 23.855 26.152 24.8865 25.5159 25.5228C24.8796 26.1591 23.8476 26.1591 23.2113 25.5228L19.436 21.7474C17.8387 22.8836 15.8857 23.5524 13.7762 23.5524C8.37695 23.5524 4 19.1754 4 13.7762C4 8.37695 8.37695 4 13.7762 4ZM13.7762 7.25873C10.1767 7.25873 7.25873 10.1767 7.25873 13.7762C7.25873 17.3757 10.1767 20.2936 13.7762 20.2936C17.3757 20.2936 20.2936 17.3757 20.2936 13.7762C20.2936 10.1767 17.3757 7.25873 13.7762 7.25873Z" fill="currentColor"/>
<path fill-rule="evenodd" clip-rule="evenodd" d="M13.7762 4C19.1754 4 23.5524 8.37695 23.5524 13.7762C23.5524 15.8894 22.8814 17.8456 21.7416 19.4445L25.5159 23.2187C26.1521 23.855 26.152 24.8865 25.5159 25.5228C24.8796 26.1591 23.8476 26.1591 23.2113 25.5228L19.436 21.7474C17.8387 22.8836 15.8857 23.5524 13.7762 23.5524C8.37695 23.5524 4 19.1754 4 13.7762C4 8.37695 8.37695 4 13.7762 4ZM13.7762 7.25873C10.1767 7.25873 7.25873 10.1767 7.25873 13.7762C7.25873 17.3757 10.1767 20.2936 13.7762 20.2936C17.3757 20.2936 20.2936 17.3757 20.2936 13.7762C20.2936 10.1767 17.3757 7.25873 13.7762 7.25873Z" fill="currentColor"/>
</svg>
