<svg width="47" height="70" viewBox="0 0 47 70" fill="none" xmlns="http://www.w3.org/2000/svg">
<path d="M0 58.3334C0 51.8901 5.2234 46.6667 11.6667 46.6667H23.3333V58.3334C23.3333 64.7767 18.1099 70.0001 11.6667 70.0001C5.2234 70.0001 0 64.7767 0 58.3334Z" fill="#24CB71"/>
<path d="M23.3333 0V23.3333H35C41.4433 23.3333 46.6667 18.1099 46.6667 11.6667C46.6667 5.2234 41.4433 0 35 0H23.3333Z" fill="#FF7237"/>
<path d="M34.9028 46.6666C41.3461 46.6666 46.5695 41.4432 46.5695 34.9999C46.5695 28.5566 41.3461 23.3333 34.9028 23.3333C28.4595 23.3333 23.2362 28.5566 23.2362 34.9999C23.2362 41.4432 28.4595 46.6666 34.9028 46.6666Z" fill="#00B6FF"/>
<path d="M0 11.6667C0 18.1099 5.2234 23.3333 11.6667 23.3333H23.3333V0H11.6667C5.2234 0 0 5.2234 0 11.6667Z" fill="#FF3737"/>
<path d="M0 34.9999C0 41.4432 5.2234 46.6666 11.6667 46.6666H23.3333V23.3333H11.6667C5.2234 23.3333 0 28.5567 0 34.9999Z" fill="#874FFF"/>
</svg>
