<svg width="96" height="61" viewBox="0 0 96 61" fill="currentColor" xmlns="http://www.w3.org/2000/svg">
<path d="M21.1519 19.194C21.4598 19.1942 21.7493 19.3209 21.9533 19.5515C26.531 24.7327 37.8712 38.3824 37.8719 46.4483C37.872 56.5339 28.7173 59.9865 28.6813 60H9.1906C9.15463 59.9865 -3.86134e-05 56.5339 1.2217e-10 46.4483C0.000806517 38.3823 11.341 24.7326 15.9187 19.5515C16.1226 19.3209 16.4122 19.1943 16.72 19.194C17.3166 19.194 17.8018 19.6791 17.8018 20.2758V35.5749C17.8018 37.069 16.6711 38.2931 15.5026 39.2241C14.2353 40.234 13.4223 41.7894 13.4222 43.5358C13.4223 46.5804 15.8914 49.0494 18.936 49.0496C21.9802 49.049 24.4466 46.5802 24.4466 43.5358C24.4465 41.7899 23.6359 40.2341 22.3693 39.2241C21.2017 38.2932 20.0709 37.0711 20.0701 35.578V20.2758C20.0701 19.6791 20.5553 19.194 21.1519 19.194Z" fill="currentColor"/>
<path d="M21.1519 19.194C21.4598 19.1942 21.7493 19.3209 21.9533 19.5515C26.531 24.7327 37.8712 38.3824 37.8719 46.4483C37.872 56.5339 28.7173 59.9865 28.6813 60H9.1906C9.15463 59.9865 -3.86134e-05 56.5339 1.2217e-10 46.4483C0.000806517 38.3823 11.341 24.7326 15.9187 19.5515C16.1226 19.3209 16.4122 19.1943 16.72 19.194C17.3166 19.194 17.8018 19.6791 17.8018 20.2758V35.5749C17.8018 37.069 16.6711 38.2931 15.5026 39.2241C14.2353 40.234 13.4223 41.7894 13.4222 43.5358C13.4223 46.5804 15.8914 49.0494 18.936 49.0496C21.9802 49.049 24.4466 46.5802 24.4466 43.5358C24.4465 41.7899 23.6359 40.2341 22.3693 39.2241C21.2017 38.2932 20.0709 37.0711 20.0701 35.578V20.2758C20.0701 19.6791 20.5553 19.194 21.1519 19.194Z" fill="currentColor"/>
<path d="M21.1519 19.194C21.4598 19.1942 21.7493 19.3209 21.9533 19.5515C26.531 24.7327 37.8712 38.3824 37.8719 46.4483C37.872 56.5339 28.7173 59.9865 28.6813 60H9.1906C9.15463 59.9865 -3.86134e-05 56.5339 1.2217e-10 46.4483C0.000806517 38.3823 11.341 24.7326 15.9187 19.5515C16.1226 19.3209 16.4122 19.1943 16.72 19.194C17.3166 19.194 17.8018 19.6791 17.8018 20.2758V35.5749C17.8018 37.069 16.6711 38.2931 15.5026 39.2241C14.2353 40.234 13.4223 41.7894 13.4222 43.5358C13.4223 46.5804 15.8914 49.0494 18.936 49.0496C21.9802 49.049 24.4466 46.5802 24.4466 43.5358C24.4465 41.7899 23.6359 40.2341 22.3693 39.2241C21.2017 38.2932 20.0709 37.0711 20.0701 35.578V20.2758C20.0701 19.6791 20.5553 19.194 21.1519 19.194Z" fill="currentColor"/>
<path d="M77.0136 31.6423C78.3428 31.6425 79.198 33.0515 78.5855 34.2312L65.7057 59.0446C65.4008 59.6314 64.7922 60 64.1308 60H62.713C61.384 59.9999 60.5291 58.5908 61.1412 57.4111L74.021 32.5977C74.3259 32.0106 74.9344 31.6423 75.5959 31.6423H77.0136Z" fill="currentColor"/>
<path d="M77.0136 31.6423C78.3428 31.6425 79.198 33.0515 78.5855 34.2312L65.7057 59.0446C65.4008 59.6314 64.7922 60 64.1308 60H62.713C61.384 59.9999 60.5291 58.5908 61.1412 57.4111L74.021 32.5977C74.3259 32.0106 74.9344 31.6423 75.5959 31.6423H77.0136Z" fill="currentColor"/>
<path d="M77.0136 31.6423C78.3428 31.6425 79.198 33.0515 78.5855 34.2312L65.7057 59.0446C65.4008 59.6314 64.7922 60 64.1308 60H62.713C61.384 59.9999 60.5291 58.5908 61.1412 57.4111L74.021 32.5977C74.3259 32.0106 74.9344 31.6423 75.5959 31.6423H77.0136Z" fill="currentColor"/>
<path d="M56.3394 35.0263C56.9963 34.48 57.951 34.4799 58.6078 35.0263L59.1348 35.464C59.9888 36.1745 59.9852 37.4877 59.1287 38.1947L50.6993 45.1385C50.2705 45.4929 50.2703 46.1495 50.6993 46.5038L59.1287 53.4445C59.9861 54.151 59.9884 55.4642 59.1348 56.1752L58.6078 56.6159C57.951 57.162 56.9961 57.1622 56.3394 56.6159L45.4136 47.524C44.3493 46.6383 44.3495 45.0041 45.4136 44.1183L56.3394 35.0263Z" fill="currentColor"/>
<path d="M56.3394 35.0263C56.9963 34.48 57.951 34.4799 58.6078 35.0263L59.1348 35.464C59.9888 36.1745 59.9852 37.4877 59.1287 38.1947L50.6993 45.1385C50.2705 45.4929 50.2703 46.1495 50.6993 46.5038L59.1287 53.4445C59.9861 54.151 59.9884 55.4642 59.1348 56.1752L58.6078 56.6159C57.951 57.162 56.9961 57.1622 56.3394 56.6159L45.4136 47.524C44.3493 46.6383 44.3495 45.0041 45.4136 44.1183L56.3394 35.0263Z" fill="currentColor"/>
<path d="M56.3394 35.0263C56.9963 34.48 57.951 34.4799 58.6078 35.0263L59.1348 35.464C59.9888 36.1745 59.9852 37.4877 59.1287 38.1947L50.6993 45.1385C50.2705 45.4929 50.2703 46.1495 50.6993 46.5038L59.1287 53.4445C59.9861 54.151 59.9884 55.4642 59.1348 56.1752L58.6078 56.6159C57.951 57.162 56.9961 57.1622 56.3394 56.6159L45.4136 47.524C44.3493 46.6383 44.3495 45.0041 45.4136 44.1183L56.3394 35.0263Z" fill="currentColor"/>
<path d="M81.1189 35.0263C81.7758 34.4799 82.7304 34.4798 83.3873 35.0263L94.3131 44.1183C95.3772 45.0041 95.3774 46.6383 94.3131 47.524L83.3873 56.6159C82.7305 57.1621 81.7757 57.1621 81.1189 56.6159L80.5919 56.1752C79.7383 55.4642 79.7405 54.151 80.598 53.4445L89.0274 46.5038C89.4565 46.1495 89.4563 45.4929 89.0274 45.1385L80.598 38.1947C79.7415 37.4878 79.7379 36.1745 80.5919 35.464L81.1189 35.0263Z" fill="currentColor"/>
<path d="M81.1189 35.0263C81.7758 34.4799 82.7304 34.4798 83.3873 35.0263L94.3131 44.1183C95.3772 45.0041 95.3774 46.6383 94.3131 47.524L83.3873 56.6159C82.7305 57.1621 81.7757 57.1621 81.1189 56.6159L80.5919 56.1752C79.7383 55.4642 79.7405 54.151 80.598 53.4445L89.0274 46.5038C89.4565 46.1495 89.4563 45.4929 89.0274 45.1385L80.598 38.1947C79.7415 37.4878 79.7379 36.1745 80.5919 35.464L81.1189 35.0263Z" fill="currentColor"/>
<path d="M81.1189 35.0263C81.7758 34.4799 82.7304 34.4798 83.3873 35.0263L94.3131 44.1183C95.3772 45.0041 95.3774 46.6383 94.3131 47.524L83.3873 56.6159C82.7305 57.1621 81.7757 57.1621 81.1189 56.6159L80.5919 56.1752C79.7383 55.4642 79.7405 54.151 80.598 53.4445L89.0274 46.5038C89.4565 46.1495 89.4563 45.4929 89.0274 45.1385L80.598 38.1947C79.7415 37.4878 79.7379 36.1745 80.5919 35.464L81.1189 35.0263Z" fill="currentColor"/>
<path d="M73.5494 17.317C73.7475 16.7818 74.5041 16.7818 74.7021 17.317L75.5219 19.5299C75.5842 19.6981 75.7174 19.8313 75.8856 19.8936L78.1016 20.7134C78.6359 20.9117 78.6358 21.6677 78.1016 21.8661L75.8856 22.6859C75.7174 22.7482 75.5842 22.8813 75.5219 23.0496L74.7021 25.2656C74.5035 25.7993 73.7478 25.7996 73.5494 25.2656L72.7296 23.0496C72.6674 22.8813 72.5342 22.7482 72.3659 22.6859L70.1531 21.8661C69.6179 21.6681 69.6179 20.9115 70.1531 20.7134L72.3659 19.8936C72.5342 19.8313 72.6674 19.6982 72.7296 19.5299L73.5494 17.317Z" fill="currentColor"/>
<path d="M73.5494 17.317C73.7475 16.7818 74.5041 16.7818 74.7021 17.317L75.5219 19.5299C75.5842 19.6981 75.7174 19.8313 75.8856 19.8936L78.1016 20.7134C78.6359 20.9117 78.6358 21.6677 78.1016 21.8661L75.8856 22.6859C75.7174 22.7482 75.5842 22.8813 75.5219 23.0496L74.7021 25.2656C74.5035 25.7993 73.7478 25.7996 73.5494 25.2656L72.7296 23.0496C72.6674 22.8813 72.5342 22.7482 72.3659 22.6859L70.1531 21.8661C69.6179 21.6681 69.6179 20.9115 70.1531 20.7134L72.3659 19.8936C72.5342 19.8313 72.6674 19.6982 72.7296 19.5299L73.5494 17.317Z" fill="currentColor"/>
<path d="M73.5494 17.317C73.7475 16.7818 74.5041 16.7818 74.7021 17.317L75.5219 19.5299C75.5842 19.6981 75.7174 19.8313 75.8856 19.8936L78.1016 20.7134C78.6359 20.9117 78.6358 21.6677 78.1016 21.8661L75.8856 22.6859C75.7174 22.7482 75.5842 22.8813 75.5219 23.0496L74.7021 25.2656C74.5035 25.7993 73.7478 25.7996 73.5494 25.2656L72.7296 23.0496C72.6674 22.8813 72.5342 22.7482 72.3659 22.6859L70.1531 21.8661C69.6179 21.6681 69.6179 20.9115 70.1531 20.7134L72.3659 19.8936C72.5342 19.8313 72.6674 19.6982 72.7296 19.5299L73.5494 17.317Z" fill="currentColor"/>
<path d="M33.3752 0.532321C33.6379 -0.17744 34.6444 -0.17744 34.907 0.532321L37.0953 6.44365C37.1778 6.66679 37.3529 6.84495 37.576 6.92752L43.4874 9.11576C44.1971 9.3784 44.1971 10.3818 43.4874 10.6444L37.576 12.8327C37.353 12.9152 37.1779 13.0905 37.0953 13.3135L34.907 19.2248C34.6444 19.9346 33.6379 19.9346 33.3752 19.2248L31.1901 13.3135C31.1075 13.0903 30.9294 12.9153 30.7062 12.8327L24.7949 10.6444C24.0851 10.3818 24.0851 9.3784 24.7949 9.11576L30.7062 6.92752C30.9294 6.84495 31.1075 6.66679 31.1901 6.44365L33.3752 0.532321Z" fill="currentColor"/>
<path d="M33.3752 0.532321C33.6379 -0.17744 34.6444 -0.17744 34.907 0.532321L37.0953 6.44365C37.1778 6.66679 37.3529 6.84495 37.576 6.92752L43.4874 9.11576C44.1971 9.3784 44.1971 10.3818 43.4874 10.6444L37.576 12.8327C37.353 12.9152 37.1779 13.0905 37.0953 13.3135L34.907 19.2248C34.6444 19.9346 33.6379 19.9346 33.3752 19.2248L31.1901 13.3135C31.1075 13.0903 30.9294 12.9153 30.7062 12.8327L24.7949 10.6444C24.0851 10.3818 24.0851 9.3784 24.7949 9.11576L30.7062 6.92752C30.9294 6.84495 31.1075 6.66679 31.1901 6.44365L33.3752 0.532321Z" fill="currentColor"/>
<path d="M33.3752 0.532321C33.6379 -0.17744 34.6444 -0.17744 34.907 0.532321L37.0953 6.44365C37.1778 6.66679 37.3529 6.84495 37.576 6.92752L43.4874 9.11576C44.1971 9.3784 44.1971 10.3818 43.4874 10.6444L37.576 12.8327C37.353 12.9152 37.1779 13.0905 37.0953 13.3135L34.907 19.2248C34.6444 19.9346 33.6379 19.9346 33.3752 19.2248L31.1901 13.3135C31.1075 13.0903 30.9294 12.9153 30.7062 12.8327L24.7949 10.6444C24.0851 10.3818 24.0851 9.3784 24.7949 9.11576L30.7062 6.92752C30.9294 6.84495 31.1075 6.66679 31.1901 6.44365L33.3752 0.532321Z" fill="currentColor"/>
<path d="M57.3657 5.83957C57.6283 5.13012 58.6314 5.13055 58.8944 5.83957L59.9824 8.77674C60.0649 8.99969 60.2403 9.17796 60.4632 9.26062L63.4034 10.3455C64.1116 10.6085 64.1112 11.6107 63.4034 11.8742L60.4632 12.9621C60.2408 13.0447 60.065 13.2205 59.9824 13.4429L58.8944 16.3832C58.631 17.091 57.6287 17.0914 57.3657 16.3832L56.2809 13.4429C56.1982 13.2201 56.0199 13.0446 55.797 12.9621L52.8598 11.8742C52.1508 11.6111 52.1503 10.6081 52.8598 10.3455L55.797 9.26062C56.0201 9.17804 56.1983 8.99988 56.2809 8.77674L57.3657 5.83957Z" fill="currentColor"/>
<path d="M57.3657 5.83957C57.6283 5.13012 58.6314 5.13055 58.8944 5.83957L59.9824 8.77674C60.0649 8.99969 60.2403 9.17796 60.4632 9.26062L63.4034 10.3455C64.1116 10.6085 64.1112 11.6107 63.4034 11.8742L60.4632 12.9621C60.2408 13.0447 60.065 13.2205 59.9824 13.4429L58.8944 16.3832C58.631 17.091 57.6287 17.0914 57.3657 16.3832L56.2809 13.4429C56.1982 13.2201 56.0199 13.0446 55.797 12.9621L52.8598 11.8742C52.1508 11.6111 52.1503 10.6081 52.8598 10.3455L55.797 9.26062C56.0201 9.17804 56.1983 8.99988 56.2809 8.77674L57.3657 5.83957Z" fill="currentColor"/>
<path d="M57.3657 5.83957C57.6283 5.13012 58.6314 5.13055 58.8944 5.83957L59.9824 8.77674C60.0649 8.99969 60.2403 9.17796 60.4632 9.26062L63.4034 10.3455C64.1116 10.6085 64.1112 11.6107 63.4034 11.8742L60.4632 12.9621C60.2408 13.0447 60.065 13.2205 59.9824 13.4429L58.8944 16.3832C58.631 17.091 57.6287 17.0914 57.3657 16.3832L56.2809 13.4429C56.1982 13.2201 56.0199 13.0446 55.797 12.9621L52.8598 11.8742C52.1508 11.6111 52.1503 10.6081 52.8598 10.3455L55.797 9.26062C56.0201 9.17804 56.1983 8.99988 56.2809 8.77674L57.3657 5.83957Z" fill="currentColor"/>
</svg>
