<svg width="80" height="60" viewBox="0 0 80 60" fill="currentColor" xmlns="http://www.w3.org/2000/svg">
<path d="M21.9314 14.2353C22.8036 13.7155 23.9064 13.9268 24.5328 14.6871C24.5828 14.7163 24.6706 14.7613 24.8023 14.8139C25.1443 14.9503 25.7064 15.0992 26.5101 15.1626C26.5749 15.1535 26.6209 15.1484 26.6528 15.1408C26.7101 15.127 26.7606 15.1108 26.8905 15.0675C27.1447 14.9827 27.3973 14.8999 27.6553 14.8139C28.7179 14.4599 29.8665 15.0333 30.221 16.0957C30.5752 17.1583 30.0014 18.3067 28.9392 18.6615C28.6804 18.7477 28.4293 18.8321 28.1744 18.917C27.8573 19.0227 27.4342 19.162 26.736 19.2241L26.5854 19.238L26.4329 19.2281C25.1741 19.1517 24.1238 18.9114 23.2985 18.5822C22.8877 18.4183 22.5077 18.2235 22.1791 17.9958C21.8796 17.788 21.5003 17.4695 21.2301 17.017C20.6564 16.0551 20.97 14.8096 21.9314 14.2353Z" fill="currentColor"/>
<path d="M21.9314 14.2353C22.8036 13.7155 23.9064 13.9268 24.5328 14.6871C24.5828 14.7163 24.6706 14.7613 24.8023 14.8139C25.1443 14.9503 25.7064 15.0992 26.5101 15.1626C26.5749 15.1535 26.6209 15.1484 26.6528 15.1408C26.7101 15.127 26.7606 15.1108 26.8905 15.0675C27.1447 14.9827 27.3973 14.8999 27.6553 14.8139C28.7179 14.4599 29.8665 15.0333 30.221 16.0957C30.5752 17.1583 30.0014 18.3067 28.9392 18.6615C28.6804 18.7477 28.4293 18.8321 28.1744 18.917C27.8573 19.0227 27.4342 19.162 26.736 19.2241L26.5854 19.238L26.4329 19.2281C25.1741 19.1517 24.1238 18.9114 23.2985 18.5822C22.8877 18.4183 22.5077 18.2235 22.1791 17.9958C21.8796 17.788 21.5003 17.4695 21.2301 17.017C20.6564 16.0551 20.97 14.8096 21.9314 14.2353Z" fill="currentColor"/>
<path d="M21.9314 14.2353C22.8036 13.7155 23.9064 13.9268 24.5328 14.6871C24.5828 14.7163 24.6706 14.7613 24.8023 14.8139C25.1443 14.9503 25.7064 15.0992 26.5101 15.1626C26.5749 15.1535 26.6209 15.1484 26.6528 15.1408C26.7101 15.127 26.7606 15.1108 26.8905 15.0675C27.1447 14.9827 27.3973 14.8999 27.6553 14.8139C28.7179 14.4599 29.8665 15.0333 30.221 16.0957C30.5752 17.1583 30.0014 18.3067 28.9392 18.6615C28.6804 18.7477 28.4293 18.8321 28.1744 18.917C27.8573 19.0227 27.4342 19.162 26.736 19.2241L26.5854 19.238L26.4329 19.2281C25.1741 19.1517 24.1238 18.9114 23.2985 18.5822C22.8877 18.4183 22.5077 18.2235 22.1791 17.9958C21.8796 17.788 21.5003 17.4695 21.2301 17.017C20.6564 16.0551 20.97 14.8096 21.9314 14.2353Z" fill="currentColor"/>
<path d="M34.2351 12.2184C34.6913 12.2705 35.2381 12.4701 35.6774 12.9198L35.8597 13.1298L36.0083 13.3457C36.1411 13.5637 36.2294 13.7841 36.2837 13.9837C36.3518 14.2348 36.4091 14.6064 36.3312 15.0298C36.2587 15.4233 35.9503 16.33 34.9146 16.6743C34.5064 16.8098 34.1353 16.7976 33.8289 16.7357C33.1026 16.718 32.4093 16.3112 32.0616 15.6163C32.0455 15.5842 31.9053 15.3184 31.8219 15.0278C31.7603 14.8129 31.4873 13.7625 32.3251 12.8861L32.5807 12.6583C33.1914 12.191 33.884 12.1785 34.2351 12.2184Z" fill="currentColor"/>
<path d="M34.2351 12.2184C34.6913 12.2705 35.2381 12.4701 35.6774 12.9198L35.8597 13.1298L36.0083 13.3457C36.1411 13.5637 36.2294 13.7841 36.2837 13.9837C36.3518 14.2348 36.4091 14.6064 36.3312 15.0298C36.2587 15.4233 35.9503 16.33 34.9146 16.6743C34.5064 16.8098 34.1353 16.7976 33.8289 16.7357C33.1026 16.718 32.4093 16.3112 32.0616 15.6163C32.0455 15.5842 31.9053 15.3184 31.8219 15.0278C31.7603 14.8129 31.4873 13.7625 32.3251 12.8861L32.5807 12.6583C33.1914 12.191 33.884 12.1785 34.2351 12.2184Z" fill="currentColor"/>
<path d="M34.2351 12.2184C34.6913 12.2705 35.2381 12.4701 35.6774 12.9198L35.8597 13.1298L36.0083 13.3457C36.1411 13.5637 36.2294 13.7841 36.2837 13.9837C36.3518 14.2348 36.4091 14.6064 36.3312 15.0298C36.2587 15.4233 35.9503 16.33 34.9146 16.6743C34.5064 16.8098 34.1353 16.7976 33.8289 16.7357C33.1026 16.718 32.4093 16.3112 32.0616 15.6163C32.0455 15.5842 31.9053 15.3184 31.8219 15.0278C31.7603 14.8129 31.4873 13.7625 32.3251 12.8861L32.5807 12.6583C33.1914 12.191 33.884 12.1785 34.2351 12.2184Z" fill="currentColor"/>
<path d="M16.3918 9.66655C16.9437 9.19498 17.5909 9.12969 18.0482 9.20492C18.4404 9.26978 18.7155 9.43295 18.8367 9.51201C19.0884 9.67645 19.2477 9.86117 19.3043 9.92808C19.4486 10.0988 19.553 10.2718 19.6233 10.4075C19.6961 10.5482 19.7841 10.7466 19.8432 10.9861C19.8864 11.1617 19.9914 11.6645 19.7897 12.2481C19.7528 12.3824 19.7023 12.5129 19.6391 12.6365C19.5671 12.7927 19.4687 12.9826 19.336 13.1615C18.9885 13.6293 18.5423 13.9133 18.1056 14.0947C17.0712 14.5236 15.8844 14.0333 15.4547 12.999C15.3079 12.6455 15.2709 12.2741 15.324 11.9212C15.2999 11.7624 15.2923 11.604 15.3041 11.4517C15.3393 11.0032 15.5132 10.6791 15.5894 10.5482C15.7477 10.277 15.9446 10.0797 16.0253 9.9994C16.1361 9.88926 16.2631 9.77655 16.3918 9.66655Z" fill="currentColor"/>
<path d="M16.3918 9.66655C16.9437 9.19498 17.5909 9.12969 18.0482 9.20492C18.4404 9.26978 18.7155 9.43295 18.8367 9.51201C19.0884 9.67645 19.2477 9.86117 19.3043 9.92808C19.4486 10.0988 19.553 10.2718 19.6233 10.4075C19.6961 10.5482 19.7841 10.7466 19.8432 10.9861C19.8864 11.1617 19.9914 11.6645 19.7897 12.2481C19.7528 12.3824 19.7023 12.5129 19.6391 12.6365C19.5671 12.7927 19.4687 12.9826 19.336 13.1615C18.9885 13.6293 18.5423 13.9133 18.1056 14.0947C17.0712 14.5236 15.8844 14.0333 15.4547 12.999C15.3079 12.6455 15.2709 12.2741 15.324 11.9212C15.2999 11.7624 15.2923 11.604 15.3041 11.4517C15.3393 11.0032 15.5132 10.6791 15.5894 10.5482C15.7477 10.277 15.9446 10.0797 16.0253 9.9994C16.1361 9.88926 16.2631 9.77655 16.3918 9.66655Z" fill="currentColor"/>
<path d="M16.3918 9.66655C16.9437 9.19498 17.5909 9.12969 18.0482 9.20492C18.4404 9.26978 18.7155 9.43295 18.8367 9.51201C19.0884 9.67645 19.2477 9.86117 19.3043 9.92808C19.4486 10.0988 19.553 10.2718 19.6233 10.4075C19.6961 10.5482 19.7841 10.7466 19.8432 10.9861C19.8864 11.1617 19.9914 11.6645 19.7897 12.2481C19.7528 12.3824 19.7023 12.5129 19.6391 12.6365C19.5671 12.7927 19.4687 12.9826 19.336 13.1615C18.9885 13.6293 18.5423 13.9133 18.1056 14.0947C17.0712 14.5236 15.8844 14.0333 15.4547 12.999C15.3079 12.6455 15.2709 12.2741 15.324 11.9212C15.2999 11.7624 15.2923 11.604 15.3041 11.4517C15.3393 11.0032 15.5132 10.6791 15.5894 10.5482C15.7477 10.277 15.9446 10.0797 16.0253 9.9994C16.1361 9.88926 16.2631 9.77655 16.3918 9.66655Z" fill="currentColor"/>
<path d="M56.8808 14.4949C57.479 14.3637 58.204 14.4182 58.7155 14.6316C59.3549 14.899 59.6314 15.4501 59.7616 15.8223C59.8771 16.1532 59.9586 16.6146 59.9954 16.7733C60.2372 17.8201 59.7674 18.7482 59.2881 19.3351C58.6672 20.0949 57.7446 20.3212 57.2117 20.4446L57.0472 20.4822L56.8808 20.4664C55.2793 20.3042 54.1296 19.3228 53.4136 18.4653L53.372 18.4138L53.3344 18.3563C53.1179 18.0137 52.5486 17.0576 53.0689 16.0066L53.1818 15.8263C53.3125 15.6614 53.4932 15.5403 53.6989 15.4815C53.9597 15.4073 54.3288 15.2638 54.9233 15.0595C55.4764 14.8696 56.1512 14.6551 56.8808 14.4949Z" fill="currentColor"/>
<path d="M56.8808 14.4949C57.479 14.3637 58.204 14.4182 58.7155 14.6316C59.3549 14.899 59.6314 15.4501 59.7616 15.8223C59.8771 16.1532 59.9586 16.6146 59.9954 16.7733C60.2372 17.8201 59.7674 18.7482 59.2881 19.3351C58.6672 20.0949 57.7446 20.3212 57.2117 20.4446L57.0472 20.4822L56.8808 20.4664C55.2793 20.3042 54.1296 19.3228 53.4136 18.4653L53.372 18.4138L53.3344 18.3563C53.1179 18.0137 52.5486 17.0576 53.0689 16.0066L53.1818 15.8263C53.3125 15.6614 53.4932 15.5403 53.6989 15.4815C53.9597 15.4073 54.3288 15.2638 54.9233 15.0595C55.4764 14.8696 56.1512 14.6551 56.8808 14.4949Z" fill="currentColor"/>
<path d="M56.8808 14.4949C57.479 14.3637 58.204 14.4182 58.7155 14.6316C59.3549 14.899 59.6314 15.4501 59.7616 15.8223C59.8771 16.1532 59.9586 16.6146 59.9954 16.7733C60.2372 17.8201 59.7674 18.7482 59.2881 19.3351C58.6672 20.0949 57.7446 20.3212 57.2117 20.4446L57.0472 20.4822L56.8808 20.4664C55.2793 20.3042 54.1296 19.3228 53.4136 18.4653L53.372 18.4138L53.3344 18.3563C53.1179 18.0137 52.5486 17.0576 53.0689 16.0066L53.1818 15.8263C53.3125 15.6614 53.4932 15.5403 53.6989 15.4815C53.9597 15.4073 54.3288 15.2638 54.9233 15.0595C55.4764 14.8696 56.1512 14.6551 56.8808 14.4949Z" fill="currentColor"/>
<path d="M49.5105 11.2535C49.8444 11.2157 50.5209 11.2238 51.1213 11.6835L51.3729 11.9093L51.5156 12.0738C52.1669 12.9014 51.926 13.8217 51.8722 14.0095C51.7934 14.2846 51.6608 14.5335 51.6543 14.5464C51.3131 15.228 50.6397 15.632 49.9286 15.6638C49.6337 15.7182 49.2794 15.7236 48.8904 15.5945C47.862 15.2527 47.5585 14.3539 47.4877 13.9698C47.4114 13.5557 47.4683 13.197 47.5333 12.9574C47.6024 12.7026 47.7281 12.4092 47.9414 12.1332L48.1157 11.9311C48.5415 11.495 49.0712 11.3036 49.5105 11.2535Z" fill="currentColor"/>
<path d="M49.5105 11.2535C49.8444 11.2157 50.5209 11.2238 51.1213 11.6835L51.3729 11.9093L51.5156 12.0738C52.1669 12.9014 51.926 13.8217 51.8722 14.0095C51.7934 14.2846 51.6608 14.5335 51.6543 14.5464C51.3131 15.228 50.6397 15.632 49.9286 15.6638C49.6337 15.7182 49.2794 15.7236 48.8904 15.5945C47.862 15.2527 47.5585 14.3539 47.4877 13.9698C47.4114 13.5557 47.4683 13.197 47.5333 12.9574C47.6024 12.7026 47.7281 12.4092 47.9414 12.1332L48.1157 11.9311C48.5415 11.495 49.0712 11.3036 49.5105 11.2535Z" fill="currentColor"/>
<path d="M49.5105 11.2535C49.8444 11.2157 50.5209 11.2238 51.1213 11.6835L51.3729 11.9093L51.5156 12.0738C52.1669 12.9014 51.926 13.8217 51.8722 14.0095C51.7934 14.2846 51.6608 14.5335 51.6543 14.5464C51.3131 15.228 50.6397 15.632 49.9286 15.6638C49.6337 15.7182 49.2794 15.7236 48.8904 15.5945C47.862 15.2527 47.5585 14.3539 47.4877 13.9698C47.4114 13.5557 47.4683 13.197 47.5333 12.9574C47.6024 12.7026 47.7281 12.4092 47.9414 12.1332L48.1157 11.9311C48.5415 11.495 49.0712 11.3036 49.5105 11.2535Z" fill="currentColor"/>
<path d="M62.0757 8.91169C62.475 8.84584 63.0208 8.88625 63.52 9.21285L63.73 9.37135L64.0371 9.6507C64.105 9.71801 64.2873 9.89986 64.4393 10.1539C64.512 10.2757 64.6766 10.5763 64.7246 10.996C64.7412 11.141 64.7403 11.2962 64.7226 11.4556C64.7642 11.7922 64.7231 12.1443 64.584 12.4799C64.1542 13.5147 62.9658 14.0053 61.931 13.5756C61.6046 13.4398 61.2382 13.2277 60.9246 12.8742C60.7405 12.6666 60.6222 12.4531 60.5402 12.2858C60.4734 12.1643 60.4186 12.036 60.3777 11.9034C60.1636 11.314 60.2726 10.805 60.3143 10.6354C60.371 10.4053 60.4563 10.2161 60.5244 10.0846C60.5899 9.95807 60.6878 9.79207 60.8275 9.62693C60.8819 9.56265 61.0393 9.38196 61.2891 9.21879C61.4089 9.14058 61.6832 8.97665 62.0757 8.91169Z" fill="currentColor"/>
<path d="M62.0757 8.91169C62.475 8.84584 63.0208 8.88625 63.52 9.21285L63.73 9.37135L64.0371 9.6507C64.105 9.71801 64.2873 9.89986 64.4393 10.1539C64.512 10.2757 64.6766 10.5763 64.7246 10.996C64.7412 11.141 64.7403 11.2962 64.7226 11.4556C64.7642 11.7922 64.7231 12.1443 64.584 12.4799C64.1542 13.5147 62.9658 14.0053 61.931 13.5756C61.6046 13.4398 61.2382 13.2277 60.9246 12.8742C60.7405 12.6666 60.6222 12.4531 60.5402 12.2858C60.4734 12.1643 60.4186 12.036 60.3777 11.9034C60.1636 11.314 60.2726 10.805 60.3143 10.6354C60.371 10.4053 60.4563 10.2161 60.5244 10.0846C60.5899 9.95807 60.6878 9.79207 60.8275 9.62693C60.8819 9.56265 61.0393 9.38196 61.2891 9.21879C61.4089 9.14058 61.6832 8.97665 62.0757 8.91169Z" fill="currentColor"/>
<path d="M62.0757 8.91169C62.475 8.84584 63.0208 8.88625 63.52 9.21285L63.73 9.37135L64.0371 9.6507C64.105 9.71801 64.2873 9.89986 64.4393 10.1539C64.512 10.2757 64.6766 10.5763 64.7246 10.996C64.7412 11.141 64.7403 11.2962 64.7226 11.4556C64.7642 11.7922 64.7231 12.1443 64.584 12.4799C64.1542 13.5147 62.9658 14.0053 61.931 13.5756C61.6046 13.4398 61.2382 13.2277 60.9246 12.8742C60.7405 12.6666 60.6222 12.4531 60.5402 12.2858C60.4734 12.1643 60.4186 12.036 60.3777 11.9034C60.1636 11.314 60.2726 10.805 60.3143 10.6354C60.371 10.4053 60.4563 10.2161 60.5244 10.0846C60.5899 9.95807 60.6878 9.79207 60.8275 9.62693C60.8819 9.56265 61.0393 9.38196 61.2891 9.21879C61.4089 9.14058 61.6832 8.97665 62.0757 8.91169Z" fill="currentColor"/>
<path fill-rule="evenodd" clip-rule="evenodd" d="M23.988 0C32.2094 8.97696e-05 39.2842 4.89284 42.4711 11.9232C44.8713 5.95905 50.7076 1.74747 57.5307 1.74747C66.4942 1.74788 73.7611 9.01434 73.7611 17.9779C73.7611 20.2594 73.2865 22.4318 72.4357 24.4031C73.7365 24.4782 75.2201 24.7269 76.4735 25.2769C77.2884 25.6346 78.0168 26.0951 78.6132 26.7747C79.0562 27.2797 79.3625 27.8339 79.594 28.4013L79.802 28.9719L79.8634 29.1958C80.3175 31.3884 79.6941 33.2264 78.2962 34.6244C77.5803 35.3404 76.7226 35.7518 76.0435 36.0133C75.4452 36.2437 74.6083 36.4819 74.3317 36.574C73.914 36.7132 73.5368 36.8071 73.2718 36.8752C73.2542 36.8797 73.2365 36.8848 73.2202 36.889C73.2444 37.0668 73.2858 37.2688 73.3411 37.4755C73.4029 37.7062 73.4713 37.9151 73.5254 38.0659C73.552 38.1402 73.5746 38.198 73.5888 38.2343C73.592 38.2426 73.5943 38.2502 73.5967 38.2561C74.295 39.7058 74.7696 41.7575 74.7696 43.3024C74.7696 44.8457 74.0527 46.6158 72.4337 47.988C73.8812 48.6077 74.896 50.0446 74.8964 51.7187V55.7763C74.8964 58.0171 73.0795 59.8337 70.8388 59.834H50.5507C48.3097 59.834 46.4931 58.0173 46.4931 55.7763V51.7187C46.4934 50.3818 47.1417 49.1986 48.1395 48.4596C47.822 48.1847 47.5706 47.8945 47.3609 47.6215C46.5052 49.3787 44.8953 50.5253 43.5291 51.0134C42.7611 51.2876 42.0535 51.4654 41.32 51.481C41.2513 51.4824 41.1826 51.4744 41.116 51.4731C41.1849 52.1412 41.2289 52.8628 41.2289 53.6366C41.2289 55.4099 40.6558 57.6433 38.4967 58.9305C37.2112 59.6966 35.4934 59.9094 34.14 59.9746C32.6946 60.0442 31.2366 59.9571 30.225 59.8756C29.0291 59.779 26.8655 59.3761 25.2738 57.4188C24.7827 58.0469 24.0503 58.8415 22.9439 59.3109C22.0565 59.6872 21.0207 59.8011 20.178 59.8478C19.3051 59.8962 18.356 59.8815 17.6123 59.8815C16.8437 59.8814 15.8507 59.8295 14.9495 59.7507C14.0907 59.6757 13.1444 59.5619 12.5442 59.408C10.349 58.8447 8.11582 57.1356 7.7397 54.2131C7.58227 52.9883 7.71448 51.6658 7.93981 50.4765C7.83566 50.4907 7.72913 50.5066 7.62082 50.5181C6.41634 50.6462 5.20376 50.352 4.3359 50.1C2.90729 49.6851 1.95526 48.9016 1.36203 48.1822C1.07108 47.8291 0.869603 47.496 0.735955 47.2371C0.669084 47.1076 0.616931 46.9947 0.579435 46.9043C0.568874 46.8787 0.56224 46.8529 0.553679 46.831C-0.292605 45.037 -0.173566 42.5945 0.943987 40.4355C2.66478 37.1115 5.87232 34.0279 7.14334 32.6967L7.15325 32.6868C7.31488 32.5199 7.45933 32.3671 7.5911 32.2311C5.14677 28.8802 3.69992 24.7511 3.69992 20.2881C3.69995 9.08357 12.7836 0.000426422 23.988 0ZM23.988 4.05761C15.0245 4.05804 7.75756 11.3245 7.75753 20.2881C7.75753 23.9758 8.98647 27.3707 11.0563 30.0953C11.1569 30.1857 11.2961 30.3159 11.4367 30.4678C11.5664 30.6079 11.796 30.8684 11.9717 31.2008C12.0614 31.3708 12.6356 32.4791 11.8508 33.5764C11.668 33.8318 11.4096 34.1123 11.1653 34.3708C10.8962 34.6556 10.5295 35.0334 10.0677 35.5101L10.0657 35.5081C8.57186 37.0717 5.92764 39.6364 4.54789 42.3018C3.95925 43.4392 3.99689 44.4365 4.15759 44.9448L4.23287 45.133L4.34779 45.4064C4.34626 45.4019 4.3452 45.3945 4.34382 45.3906C4.34109 45.3829 4.33793 45.3763 4.3359 45.3708C4.33179 45.3597 4.32908 45.3517 4.32797 45.349C4.32758 45.348 4.33236 45.3583 4.34184 45.3767C4.36467 45.4208 4.41208 45.5051 4.49242 45.6026C4.64399 45.7864 4.93143 46.0492 5.4672 46.2049C6.26131 46.4354 6.82439 46.5231 7.19089 46.4843C8.13124 46.3841 8.56413 46.163 8.88883 45.9315C9.34143 45.6084 9.41817 45.5139 9.4733 45.4381L9.61793 45.2598C9.65717 45.2162 9.83063 45.0217 10.1113 44.8576C10.2547 44.7739 10.5659 44.6143 10.9969 44.5842C11.5047 44.5491 12.0638 44.7056 12.5066 45.1093C12.8876 45.4569 13.0339 45.8528 13.0911 46.0523C13.1524 46.2665 13.1648 46.4453 13.1683 46.5417C13.1793 46.8444 13.1151 47.0935 13.1109 47.1103C13.0935 47.1846 13.0735 47.2501 13.0614 47.2906C13.0178 47.435 12.9443 47.6503 12.8811 47.8335C12.7371 48.2504 12.5335 48.8412 12.3362 49.5294C11.9194 50.9834 11.6189 52.5662 11.7636 53.694C11.8738 54.551 12.5154 55.2109 13.5527 55.4772C13.7941 55.539 14.4384 55.6313 15.3041 55.707C16.127 55.7789 16.9956 55.8238 17.6123 55.8239C18.4529 55.8239 19.2282 55.8364 19.9541 55.7962C20.7092 55.7543 21.152 55.6636 21.3589 55.5762C21.5959 55.4757 21.8468 55.2536 22.2366 54.7223C22.3486 54.5696 22.6901 54.0807 22.8666 53.8486C23.0918 53.5526 23.4469 53.1138 23.9424 52.7787C24.7686 52.2204 25.646 52.2982 26.2268 52.5112C26.6107 52.6522 26.9101 52.8618 27.1124 53.0303L27.2828 53.1809L27.4473 53.3513C27.8094 53.7517 28.0084 54.1705 28.0932 54.334C28.2063 54.5522 28.2798 54.6843 28.4161 54.8531C28.9782 55.5486 29.7922 55.7685 30.5519 55.8298C31.5052 55.9067 32.7588 55.978 33.9438 55.921C35.2205 55.8595 36.0555 55.6595 36.4184 55.4435C36.8651 55.177 37.1713 54.6526 37.1713 53.6366C37.1713 50.0877 36.1314 48.0319 35.9092 47.4491C35.8971 47.4172 35.8686 47.3424 35.8458 47.2728C35.8392 47.2524 35.8266 47.2081 35.8121 47.1539C35.8048 47.1266 35.792 47.0795 35.7804 47.0212C35.7717 46.9769 35.748 46.851 35.7428 46.6903C35.7402 46.6102 35.7393 46.4576 35.7725 46.2703C35.8007 46.1113 35.8878 45.7206 36.2024 45.3371C36.596 44.8583 37.1935 44.5804 37.8231 44.5961C38.3276 44.6091 38.6849 44.8058 38.8256 44.8913C39.11 45.0643 39.2813 45.2688 39.311 45.3034C39.3712 45.3735 39.4148 45.4338 39.4359 45.4639C39.5034 45.5604 39.5527 45.6508 39.5567 45.6581C39.5717 45.6849 39.5854 45.7106 39.5944 45.7274C39.611 45.7588 39.6378 45.8082 39.6558 45.8423C39.7399 46.0026 39.8713 46.2495 40.0382 46.516C40.2109 46.7918 40.3898 47.0365 40.5513 47.2094C40.6007 47.2623 40.6411 47.2947 40.6662 47.3164C41.0037 47.4098 41.1312 47.4274 41.2348 47.4253C41.3579 47.4226 41.603 47.3939 42.164 47.1935C42.4784 47.0813 42.8628 46.8574 43.1943 46.5397C43.5212 46.2262 43.7405 45.8756 43.8382 45.5214C43.9202 45.2237 43.9054 44.9551 43.7114 44.4594C43.6025 44.1812 43.4589 43.8888 43.2617 43.4846C43.0962 43.1456 42.9017 42.7363 42.7148 42.2879C42.1897 41.3394 41.2361 39.7905 40.0778 38.2383C38.8743 36.6256 37.5577 35.1541 36.3669 34.2975C35.8377 33.9163 35.5229 33.3034 35.5229 32.6511C35.5229 32.2562 35.64 31.9578 35.6734 31.8725C35.7234 31.7449 35.7771 31.641 35.8121 31.5773C35.8834 31.4478 35.9617 31.3302 36.0182 31.2484C36.1362 31.0775 36.2763 30.8962 36.3926 30.7491C36.5137 30.5961 36.6326 30.4515 36.7195 30.3469C36.7633 30.2943 36.8003 30.2492 36.8265 30.2181C36.8394 30.2029 36.8489 30.1893 36.8563 30.1805C38.9652 27.4417 40.2184 24.014 40.2184 20.2881C40.2184 11.3243 32.9517 4.05774 23.988 4.05761ZM57.5307 5.80508C50.8078 5.80508 45.3578 11.255 45.3578 17.9779C45.3579 20.7922 46.3102 23.3783 47.9117 25.4393L47.9513 25.4928C47.9541 25.4967 47.9604 25.5056 47.9671 25.5146C47.981 25.5332 48.0037 25.5607 48.0305 25.5959C48.0859 25.6683 48.1607 25.7649 48.2425 25.8633C48.3274 25.9653 48.4043 26.052 48.4625 26.111C48.4666 26.1152 48.4708 26.1193 48.4743 26.1229C48.5388 26.1655 48.6246 26.2249 48.7081 26.2972C48.7594 26.3416 48.8604 26.4346 48.9677 26.5687C49.0456 26.666 49.3032 26.9973 49.3877 27.5098C49.5037 28.2151 49.2407 28.9462 48.6685 29.4137C48.254 29.7522 47.8281 29.8274 47.7017 29.8476C47.4066 29.8947 47.1648 29.8613 47.133 29.8575C47.0537 29.8484 46.9884 29.8363 46.9547 29.8298C46.8865 29.8165 46.8206 29.8009 46.7843 29.7922C46.6142 29.751 46.4347 29.703 46.1622 29.6475C45.63 29.5393 44.8393 29.4259 43.9274 29.4771C42.9227 29.5337 42.5653 29.6854 42.1046 29.9467C42.1007 29.9491 42.078 29.9629 42.0392 29.9942C41.9953 30.0298 41.9403 30.0811 41.8768 30.1468C41.7475 30.2804 41.6085 30.453 41.4845 30.6481C41.2073 31.084 41.1359 31.4079 41.1358 31.5099C41.1358 32.3183 41.4229 32.8101 41.9798 33.3525C42.534 33.892 43.0782 34.1138 43.7471 34.2797L44.4643 34.4362L44.5059 34.4461C45.4788 34.6695 46.2004 34.7167 46.7209 34.7413C46.9232 34.7509 47.3009 34.7613 47.5828 34.8028C47.7231 34.8234 48.0512 34.8773 48.3971 35.0564C48.7216 35.2246 49.1156 35.5419 49.356 36.043C49.6101 36.5241 49.738 37.0731 49.8077 37.4101C49.9022 37.8663 49.9725 38.363 50.0237 38.799C50.0755 39.2407 50.1113 39.6537 50.1346 39.954C50.1464 40.105 50.1547 40.2306 50.1604 40.3186C50.1633 40.3623 50.1668 40.3971 50.1683 40.4216C50.169 40.4339 50.1679 40.4443 50.1683 40.4513C50.1686 40.4545 50.1702 40.4572 50.1703 40.4592V40.4632C50.1724 40.5006 50.1723 40.5387 50.1723 40.5761C50.1723 42.2335 50.348 44.0185 50.4715 45.0043C50.5751 45.1525 50.6484 45.2477 50.729 45.3312C50.8203 45.4255 50.9258 45.5083 51.1352 45.5867C51.8223 45.8439 53.2216 46.0405 54.3943 45.9493C55.2805 45.8804 55.8092 45.8389 56.229 45.7353C56.5759 45.6496 56.6841 45.5583 56.754 45.4798C56.9949 45.2089 57.1782 44.7992 57.4098 44.1721C57.4954 43.9405 57.6435 43.5146 57.816 43.1815C57.9053 43.009 58.0746 42.712 58.3549 42.4385C58.6632 42.138 59.2019 41.7807 59.9458 41.7807L60.1677 41.7926C60.6643 41.8453 61.0223 42.0623 61.2059 42.1968C61.4249 42.3575 61.5744 42.5298 61.6557 42.6307C61.8185 42.8331 61.9415 43.0473 62.0123 43.1756C62.1475 43.4206 62.3434 43.8254 62.464 44.0612C62.8066 44.7307 63.0678 45.1118 63.2407 45.2519C63.9336 45.8135 64.8966 46.0736 65.9887 46.0781C67.0831 46.0824 68.0874 45.8252 68.6079 45.6105C70.4281 44.8591 70.7119 43.7006 70.712 43.3024C70.7119 42.35 70.3634 40.8538 69.9175 39.962L69.86 39.8371L69.8541 39.8233C69.8513 39.8164 69.8484 39.8059 69.8442 39.7955C69.8358 39.7749 69.8236 39.7477 69.8105 39.7143C69.7839 39.6463 69.7485 39.5512 69.7075 39.4369C69.6259 39.2096 69.5182 38.8897 69.4202 38.5236C69.2522 37.896 68.9944 36.7368 69.2399 35.6567C69.3615 35.1217 69.593 34.5839 70.0086 34.1192C70.4188 33.6608 70.892 33.404 71.2786 33.2475C71.6342 33.1036 72.0135 33.0099 72.2613 32.9463C72.5471 32.8729 72.789 32.8114 73.0499 32.7244C73.3151 32.6361 73.6316 32.5419 73.8681 32.4688C74.1304 32.3878 74.3667 32.3113 74.5853 32.2271C75.041 32.0516 75.2929 31.89 75.4274 31.7556C75.8487 31.3342 76.0434 30.9017 75.9068 30.127C75.7663 29.7304 75.6539 29.5539 75.5641 29.4514C75.4721 29.3466 75.2968 29.1931 74.8429 28.9937C73.6102 28.4528 71.6378 28.3563 70.6545 28.4826C70.5688 28.4936 70.4814 28.4984 70.395 28.4984C70.395 28.4984 70.3251 28.5002 70.1671 28.5182C70.0257 28.5344 69.8628 28.5589 69.7015 28.5836C69.542 28.608 69.3937 28.6323 69.2855 28.651C69.2319 28.6602 69.1879 28.6675 69.1587 28.6728C69.1449 28.6752 69.134 28.6774 69.127 28.6787C69.1238 28.6793 69.1206 28.6803 69.119 28.6807C68.2913 28.833 67.4541 28.4567 67.0169 27.7376C66.5802 27.0184 66.6333 26.1038 67.1497 25.4393C68.751 23.3783 69.7035 20.792 69.7035 17.9779C69.7035 11.2553 64.2532 5.80549 57.5307 5.80508ZM45.768 39.4587L46.0592 39.9659C46.0409 39.7555 46.0226 39.5161 45.9938 39.2705C45.9731 39.0937 45.9489 38.92 45.9245 38.7554C45.7338 38.7407 45.5249 38.7185 45.2984 38.692C45.4666 38.9602 45.6237 39.2168 45.768 39.4587Z" fill="currentColor"/>
<path fill-rule="evenodd" clip-rule="evenodd" d="M23.988 0C32.2094 8.97696e-05 39.2842 4.89284 42.4711 11.9232C44.8713 5.95905 50.7076 1.74747 57.5307 1.74747C66.4942 1.74788 73.7611 9.01434 73.7611 17.9779C73.7611 20.2594 73.2865 22.4318 72.4357 24.4031C73.7365 24.4782 75.2201 24.7269 76.4735 25.2769C77.2884 25.6346 78.0168 26.0951 78.6132 26.7747C79.0562 27.2797 79.3625 27.8339 79.594 28.4013L79.802 28.9719L79.8634 29.1958C80.3175 31.3884 79.6941 33.2264 78.2962 34.6244C77.5803 35.3404 76.7226 35.7518 76.0435 36.0133C75.4452 36.2437 74.6083 36.4819 74.3317 36.574C73.914 36.7132 73.5368 36.8071 73.2718 36.8752C73.2542 36.8797 73.2365 36.8848 73.2202 36.889C73.2444 37.0668 73.2858 37.2688 73.3411 37.4755C73.4029 37.7062 73.4713 37.9151 73.5254 38.0659C73.552 38.1402 73.5746 38.198 73.5888 38.2343C73.592 38.2426 73.5943 38.2502 73.5967 38.2561C74.295 39.7058 74.7696 41.7575 74.7696 43.3024C74.7696 44.8457 74.0527 46.6158 72.4337 47.988C73.8812 48.6077 74.896 50.0446 74.8964 51.7187V55.7763C74.8964 58.0171 73.0795 59.8337 70.8388 59.834H50.5507C48.3097 59.834 46.4931 58.0173 46.4931 55.7763V51.7187C46.4934 50.3818 47.1417 49.1986 48.1395 48.4596C47.822 48.1847 47.5706 47.8945 47.3609 47.6215C46.5052 49.3787 44.8953 50.5253 43.5291 51.0134C42.7611 51.2876 42.0535 51.4654 41.32 51.481C41.2513 51.4824 41.1826 51.4744 41.116 51.4731C41.1849 52.1412 41.2289 52.8628 41.2289 53.6366C41.2289 55.4099 40.6558 57.6433 38.4967 58.9305C37.2112 59.6966 35.4934 59.9094 34.14 59.9746C32.6946 60.0442 31.2366 59.9571 30.225 59.8756C29.0291 59.779 26.8655 59.3761 25.2738 57.4188C24.7827 58.0469 24.0503 58.8415 22.9439 59.3109C22.0565 59.6872 21.0207 59.8011 20.178 59.8478C19.3051 59.8962 18.356 59.8815 17.6123 59.8815C16.8437 59.8814 15.8507 59.8295 14.9495 59.7507C14.0907 59.6757 13.1444 59.5619 12.5442 59.408C10.349 58.8447 8.11582 57.1356 7.7397 54.2131C7.58227 52.9883 7.71448 51.6658 7.93981 50.4765C7.83566 50.4907 7.72913 50.5066 7.62082 50.5181C6.41634 50.6462 5.20376 50.352 4.3359 50.1C2.90729 49.6851 1.95526 48.9016 1.36203 48.1822C1.07108 47.8291 0.869603 47.496 0.735955 47.2371C0.669084 47.1076 0.616931 46.9947 0.579435 46.9043C0.568874 46.8787 0.56224 46.8529 0.553679 46.831C-0.292605 45.037 -0.173566 42.5945 0.943987 40.4355C2.66478 37.1115 5.87232 34.0279 7.14334 32.6967L7.15325 32.6868C7.31488 32.5199 7.45933 32.3671 7.5911 32.2311C5.14677 28.8802 3.69992 24.7511 3.69992 20.2881C3.69995 9.08357 12.7836 0.000426422 23.988 0ZM23.988 4.05761C15.0245 4.05804 7.75756 11.3245 7.75753 20.2881C7.75753 23.9758 8.98647 27.3707 11.0563 30.0953C11.1569 30.1857 11.2961 30.3159 11.4367 30.4678C11.5664 30.6079 11.796 30.8684 11.9717 31.2008C12.0614 31.3708 12.6356 32.4791 11.8508 33.5764C11.668 33.8318 11.4096 34.1123 11.1653 34.3708C10.8962 34.6556 10.5295 35.0334 10.0677 35.5101L10.0657 35.5081C8.57186 37.0717 5.92764 39.6364 4.54789 42.3018C3.95925 43.4392 3.99689 44.4365 4.15759 44.9448L4.23287 45.133L4.34779 45.4064C4.34626 45.4019 4.3452 45.3945 4.34382 45.3906C4.34109 45.3829 4.33793 45.3763 4.3359 45.3708C4.33179 45.3597 4.32908 45.3517 4.32797 45.349C4.32758 45.348 4.33236 45.3583 4.34184 45.3767C4.36467 45.4208 4.41208 45.5051 4.49242 45.6026C4.64399 45.7864 4.93143 46.0492 5.4672 46.2049C6.26131 46.4354 6.82439 46.5231 7.19089 46.4843C8.13124 46.3841 8.56413 46.163 8.88883 45.9315C9.34143 45.6084 9.41817 45.5139 9.4733 45.4381L9.61793 45.2598C9.65717 45.2162 9.83063 45.0217 10.1113 44.8576C10.2547 44.7739 10.5659 44.6143 10.9969 44.5842C11.5047 44.5491 12.0638 44.7056 12.5066 45.1093C12.8876 45.4569 13.0339 45.8528 13.0911 46.0523C13.1524 46.2665 13.1648 46.4453 13.1683 46.5417C13.1793 46.8444 13.1151 47.0935 13.1109 47.1103C13.0935 47.1846 13.0735 47.2501 13.0614 47.2906C13.0178 47.435 12.9443 47.6503 12.8811 47.8335C12.7371 48.2504 12.5335 48.8412 12.3362 49.5294C11.9194 50.9834 11.6189 52.5662 11.7636 53.694C11.8738 54.551 12.5154 55.2109 13.5527 55.4772C13.7941 55.539 14.4384 55.6313 15.3041 55.707C16.127 55.7789 16.9956 55.8238 17.6123 55.8239C18.4529 55.8239 19.2282 55.8364 19.9541 55.7962C20.7092 55.7543 21.152 55.6636 21.3589 55.5762C21.5959 55.4757 21.8468 55.2536 22.2366 54.7223C22.3486 54.5696 22.6901 54.0807 22.8666 53.8486C23.0918 53.5526 23.4469 53.1138 23.9424 52.7787C24.7686 52.2204 25.646 52.2982 26.2268 52.5112C26.6107 52.6522 26.9101 52.8618 27.1124 53.0303L27.2828 53.1809L27.4473 53.3513C27.8094 53.7517 28.0084 54.1705 28.0932 54.334C28.2063 54.5522 28.2798 54.6843 28.4161 54.8531C28.9782 55.5486 29.7922 55.7685 30.5519 55.8298C31.5052 55.9067 32.7588 55.978 33.9438 55.921C35.2205 55.8595 36.0555 55.6595 36.4184 55.4435C36.8651 55.177 37.1713 54.6526 37.1713 53.6366C37.1713 50.0877 36.1314 48.0319 35.9092 47.4491C35.8971 47.4172 35.8686 47.3424 35.8458 47.2728C35.8392 47.2524 35.8266 47.2081 35.8121 47.1539C35.8048 47.1266 35.792 47.0795 35.7804 47.0212C35.7717 46.9769 35.748 46.851 35.7428 46.6903C35.7402 46.6102 35.7393 46.4576 35.7725 46.2703C35.8007 46.1113 35.8878 45.7206 36.2024 45.3371C36.596 44.8583 37.1935 44.5804 37.8231 44.5961C38.3276 44.6091 38.6849 44.8058 38.8256 44.8913C39.11 45.0643 39.2813 45.2688 39.311 45.3034C39.3712 45.3735 39.4148 45.4338 39.4359 45.4639C39.5034 45.5604 39.5527 45.6508 39.5567 45.6581C39.5717 45.6849 39.5854 45.7106 39.5944 45.7274C39.611 45.7588 39.6378 45.8082 39.6558 45.8423C39.7399 46.0026 39.8713 46.2495 40.0382 46.516C40.2109 46.7918 40.3898 47.0365 40.5513 47.2094C40.6007 47.2623 40.6411 47.2947 40.6662 47.3164C41.0037 47.4098 41.1312 47.4274 41.2348 47.4253C41.3579 47.4226 41.603 47.3939 42.164 47.1935C42.4784 47.0813 42.8628 46.8574 43.1943 46.5397C43.5212 46.2262 43.7405 45.8756 43.8382 45.5214C43.9202 45.2237 43.9054 44.9551 43.7114 44.4594C43.6025 44.1812 43.4589 43.8888 43.2617 43.4846C43.0962 43.1456 42.9017 42.7363 42.7148 42.2879C42.1897 41.3394 41.2361 39.7905 40.0778 38.2383C38.8743 36.6256 37.5577 35.1541 36.3669 34.2975C35.8377 33.9163 35.5229 33.3034 35.5229 32.6511C35.5229 32.2562 35.64 31.9578 35.6734 31.8725C35.7234 31.7449 35.7771 31.641 35.8121 31.5773C35.8834 31.4478 35.9617 31.3302 36.0182 31.2484C36.1362 31.0775 36.2763 30.8962 36.3926 30.7491C36.5137 30.5961 36.6326 30.4515 36.7195 30.3469C36.7633 30.2943 36.8003 30.2492 36.8265 30.2181C36.8394 30.2029 36.8489 30.1893 36.8563 30.1805C38.9652 27.4417 40.2184 24.014 40.2184 20.2881C40.2184 11.3243 32.9517 4.05774 23.988 4.05761ZM57.5307 5.80508C50.8078 5.80508 45.3578 11.255 45.3578 17.9779C45.3579 20.7922 46.3102 23.3783 47.9117 25.4393L47.9513 25.4928C47.9541 25.4967 47.9604 25.5056 47.9671 25.5146C47.981 25.5332 48.0037 25.5607 48.0305 25.5959C48.0859 25.6683 48.1607 25.7649 48.2425 25.8633C48.3274 25.9653 48.4043 26.052 48.4625 26.111C48.4666 26.1152 48.4708 26.1193 48.4743 26.1229C48.5388 26.1655 48.6246 26.2249 48.7081 26.2972C48.7594 26.3416 48.8604 26.4346 48.9677 26.5687C49.0456 26.666 49.3032 26.9973 49.3877 27.5098C49.5037 28.2151 49.2407 28.9462 48.6685 29.4137C48.254 29.7522 47.8281 29.8274 47.7017 29.8476C47.4066 29.8947 47.1648 29.8613 47.133 29.8575C47.0537 29.8484 46.9884 29.8363 46.9547 29.8298C46.8865 29.8165 46.8206 29.8009 46.7843 29.7922C46.6142 29.751 46.4347 29.703 46.1622 29.6475C45.63 29.5393 44.8393 29.4259 43.9274 29.4771C42.9227 29.5337 42.5653 29.6854 42.1046 29.9467C42.1007 29.9491 42.078 29.9629 42.0392 29.9942C41.9953 30.0298 41.9403 30.0811 41.8768 30.1468C41.7475 30.2804 41.6085 30.453 41.4845 30.6481C41.2073 31.084 41.1359 31.4079 41.1358 31.5099C41.1358 32.3183 41.4229 32.8101 41.9798 33.3525C42.534 33.892 43.0782 34.1138 43.7471 34.2797L44.4643 34.4362L44.5059 34.4461C45.4788 34.6695 46.2004 34.7167 46.7209 34.7413C46.9232 34.7509 47.3009 34.7613 47.5828 34.8028C47.7231 34.8234 48.0512 34.8773 48.3971 35.0564C48.7216 35.2246 49.1156 35.5419 49.356 36.043C49.6101 36.5241 49.738 37.0731 49.8077 37.4101C49.9022 37.8663 49.9725 38.363 50.0237 38.799C50.0755 39.2407 50.1113 39.6537 50.1346 39.954C50.1464 40.105 50.1547 40.2306 50.1604 40.3186C50.1633 40.3623 50.1668 40.3971 50.1683 40.4216C50.169 40.4339 50.1679 40.4443 50.1683 40.4513C50.1686 40.4545 50.1702 40.4572 50.1703 40.4592V40.4632C50.1724 40.5006 50.1723 40.5387 50.1723 40.5761C50.1723 42.2335 50.348 44.0185 50.4715 45.0043C50.5751 45.1525 50.6484 45.2477 50.729 45.3312C50.8203 45.4255 50.9258 45.5083 51.1352 45.5867C51.8223 45.8439 53.2216 46.0405 54.3943 45.9493C55.2805 45.8804 55.8092 45.8389 56.229 45.7353C56.5759 45.6496 56.6841 45.5583 56.754 45.4798C56.9949 45.2089 57.1782 44.7992 57.4098 44.1721C57.4954 43.9405 57.6435 43.5146 57.816 43.1815C57.9053 43.009 58.0746 42.712 58.3549 42.4385C58.6632 42.138 59.2019 41.7807 59.9458 41.7807L60.1677 41.7926C60.6643 41.8453 61.0223 42.0623 61.2059 42.1968C61.4249 42.3575 61.5744 42.5298 61.6557 42.6307C61.8185 42.8331 61.9415 43.0473 62.0123 43.1756C62.1475 43.4206 62.3434 43.8254 62.464 44.0612C62.8066 44.7307 63.0678 45.1118 63.2407 45.2519C63.9336 45.8135 64.8966 46.0736 65.9887 46.0781C67.0831 46.0824 68.0874 45.8252 68.6079 45.6105C70.4281 44.8591 70.7119 43.7006 70.712 43.3024C70.7119 42.35 70.3634 40.8538 69.9175 39.962L69.86 39.8371L69.8541 39.8233C69.8513 39.8164 69.8484 39.8059 69.8442 39.7955C69.8358 39.7749 69.8236 39.7477 69.8105 39.7143C69.7839 39.6463 69.7485 39.5512 69.7075 39.4369C69.6259 39.2096 69.5182 38.8897 69.4202 38.5236C69.2522 37.896 68.9944 36.7368 69.2399 35.6567C69.3615 35.1217 69.593 34.5839 70.0086 34.1192C70.4188 33.6608 70.892 33.404 71.2786 33.2475C71.6342 33.1036 72.0135 33.0099 72.2613 32.9463C72.5471 32.8729 72.789 32.8114 73.0499 32.7244C73.3151 32.6361 73.6316 32.5419 73.8681 32.4688C74.1304 32.3878 74.3667 32.3113 74.5853 32.2271C75.041 32.0516 75.2929 31.89 75.4274 31.7556C75.8487 31.3342 76.0434 30.9017 75.9068 30.127C75.7663 29.7304 75.6539 29.5539 75.5641 29.4514C75.4721 29.3466 75.2968 29.1931 74.8429 28.9937C73.6102 28.4528 71.6378 28.3563 70.6545 28.4826C70.5688 28.4936 70.4814 28.4984 70.395 28.4984C70.395 28.4984 70.3251 28.5002 70.1671 28.5182C70.0257 28.5344 69.8628 28.5589 69.7015 28.5836C69.542 28.608 69.3937 28.6323 69.2855 28.651C69.2319 28.6602 69.1879 28.6675 69.1587 28.6728C69.1449 28.6752 69.134 28.6774 69.127 28.6787C69.1238 28.6793 69.1206 28.6803 69.119 28.6807C68.2913 28.833 67.4541 28.4567 67.0169 27.7376C66.5802 27.0184 66.6333 26.1038 67.1497 25.4393C68.751 23.3783 69.7035 20.792 69.7035 17.9779C69.7035 11.2553 64.2532 5.80549 57.5307 5.80508ZM45.768 39.4587L46.0592 39.9659C46.0409 39.7555 46.0226 39.5161 45.9938 39.2705C45.9731 39.0937 45.9489 38.92 45.9245 38.7554C45.7338 38.7407 45.5249 38.7185 45.2984 38.692C45.4666 38.9602 45.6237 39.2168 45.768 39.4587Z" fill="currentColor"/>
<path fill-rule="evenodd" clip-rule="evenodd" d="M23.988 0C32.2094 8.97696e-05 39.2842 4.89284 42.4711 11.9232C44.8713 5.95905 50.7076 1.74747 57.5307 1.74747C66.4942 1.74788 73.7611 9.01434 73.7611 17.9779C73.7611 20.2594 73.2865 22.4318 72.4357 24.4031C73.7365 24.4782 75.2201 24.7269 76.4735 25.2769C77.2884 25.6346 78.0168 26.0951 78.6132 26.7747C79.0562 27.2797 79.3625 27.8339 79.594 28.4013L79.802 28.9719L79.8634 29.1958C80.3175 31.3884 79.6941 33.2264 78.2962 34.6244C77.5803 35.3404 76.7226 35.7518 76.0435 36.0133C75.4452 36.2437 74.6083 36.4819 74.3317 36.574C73.914 36.7132 73.5368 36.8071 73.2718 36.8752C73.2542 36.8797 73.2365 36.8848 73.2202 36.889C73.2444 37.0668 73.2858 37.2688 73.3411 37.4755C73.4029 37.7062 73.4713 37.9151 73.5254 38.0659C73.552 38.1402 73.5746 38.198 73.5888 38.2343C73.592 38.2426 73.5943 38.2502 73.5967 38.2561C74.295 39.7058 74.7696 41.7575 74.7696 43.3024C74.7696 44.8457 74.0527 46.6158 72.4337 47.988C73.8812 48.6077 74.896 50.0446 74.8964 51.7187V55.7763C74.8964 58.0171 73.0795 59.8337 70.8388 59.834H50.5507C48.3097 59.834 46.4931 58.0173 46.4931 55.7763V51.7187C46.4934 50.3818 47.1417 49.1986 48.1395 48.4596C47.822 48.1847 47.5706 47.8945 47.3609 47.6215C46.5052 49.3787 44.8953 50.5253 43.5291 51.0134C42.7611 51.2876 42.0535 51.4654 41.32 51.481C41.2513 51.4824 41.1826 51.4744 41.116 51.4731C41.1849 52.1412 41.2289 52.8628 41.2289 53.6366C41.2289 55.4099 40.6558 57.6433 38.4967 58.9305C37.2112 59.6966 35.4934 59.9094 34.14 59.9746C32.6946 60.0442 31.2366 59.9571 30.225 59.8756C29.0291 59.779 26.8655 59.3761 25.2738 57.4188C24.7827 58.0469 24.0503 58.8415 22.9439 59.3109C22.0565 59.6872 21.0207 59.8011 20.178 59.8478C19.3051 59.8962 18.356 59.8815 17.6123 59.8815C16.8437 59.8814 15.8507 59.8295 14.9495 59.7507C14.0907 59.6757 13.1444 59.5619 12.5442 59.408C10.349 58.8447 8.11582 57.1356 7.7397 54.2131C7.58227 52.9883 7.71448 51.6658 7.93981 50.4765C7.83566 50.4907 7.72913 50.5066 7.62082 50.5181C6.41634 50.6462 5.20376 50.352 4.3359 50.1C2.90729 49.6851 1.95526 48.9016 1.36203 48.1822C1.07108 47.8291 0.869603 47.496 0.735955 47.2371C0.669084 47.1076 0.616931 46.9947 0.579435 46.9043C0.568874 46.8787 0.56224 46.8529 0.553679 46.831C-0.292605 45.037 -0.173566 42.5945 0.943987 40.4355C2.66478 37.1115 5.87232 34.0279 7.14334 32.6967L7.15325 32.6868C7.31488 32.5199 7.45933 32.3671 7.5911 32.2311C5.14677 28.8802 3.69992 24.7511 3.69992 20.2881C3.69995 9.08357 12.7836 0.000426422 23.988 0ZM23.988 4.05761C15.0245 4.05804 7.75756 11.3245 7.75753 20.2881C7.75753 23.9758 8.98647 27.3707 11.0563 30.0953C11.1569 30.1857 11.2961 30.3159 11.4367 30.4678C11.5664 30.6079 11.796 30.8684 11.9717 31.2008C12.0614 31.3708 12.6356 32.4791 11.8508 33.5764C11.668 33.8318 11.4096 34.1123 11.1653 34.3708C10.8962 34.6556 10.5295 35.0334 10.0677 35.5101L10.0657 35.5081C8.57186 37.0717 5.92764 39.6364 4.54789 42.3018C3.95925 43.4392 3.99689 44.4365 4.15759 44.9448L4.23287 45.133L4.34779 45.4064C4.34626 45.4019 4.3452 45.3945 4.34382 45.3906C4.34109 45.3829 4.33793 45.3763 4.3359 45.3708C4.33179 45.3597 4.32908 45.3517 4.32797 45.349C4.32758 45.348 4.33236 45.3583 4.34184 45.3767C4.36467 45.4208 4.41208 45.5051 4.49242 45.6026C4.64399 45.7864 4.93143 46.0492 5.4672 46.2049C6.26131 46.4354 6.82439 46.5231 7.19089 46.4843C8.13124 46.3841 8.56413 46.163 8.88883 45.9315C9.34143 45.6084 9.41817 45.5139 9.4733 45.4381L9.61793 45.2598C9.65717 45.2162 9.83063 45.0217 10.1113 44.8576C10.2547 44.7739 10.5659 44.6143 10.9969 44.5842C11.5047 44.5491 12.0638 44.7056 12.5066 45.1093C12.8876 45.4569 13.0339 45.8528 13.0911 46.0523C13.1524 46.2665 13.1648 46.4453 13.1683 46.5417C13.1793 46.8444 13.1151 47.0935 13.1109 47.1103C13.0935 47.1846 13.0735 47.2501 13.0614 47.2906C13.0178 47.435 12.9443 47.6503 12.8811 47.8335C12.7371 48.2504 12.5335 48.8412 12.3362 49.5294C11.9194 50.9834 11.6189 52.5662 11.7636 53.694C11.8738 54.551 12.5154 55.2109 13.5527 55.4772C13.7941 55.539 14.4384 55.6313 15.3041 55.707C16.127 55.7789 16.9956 55.8238 17.6123 55.8239C18.4529 55.8239 19.2282 55.8364 19.9541 55.7962C20.7092 55.7543 21.152 55.6636 21.3589 55.5762C21.5959 55.4757 21.8468 55.2536 22.2366 54.7223C22.3486 54.5696 22.6901 54.0807 22.8666 53.8486C23.0918 53.5526 23.4469 53.1138 23.9424 52.7787C24.7686 52.2204 25.646 52.2982 26.2268 52.5112C26.6107 52.6522 26.9101 52.8618 27.1124 53.0303L27.2828 53.1809L27.4473 53.3513C27.8094 53.7517 28.0084 54.1705 28.0932 54.334C28.2063 54.5522 28.2798 54.6843 28.4161 54.8531C28.9782 55.5486 29.7922 55.7685 30.5519 55.8298C31.5052 55.9067 32.7588 55.978 33.9438 55.921C35.2205 55.8595 36.0555 55.6595 36.4184 55.4435C36.8651 55.177 37.1713 54.6526 37.1713 53.6366C37.1713 50.0877 36.1314 48.0319 35.9092 47.4491C35.8971 47.4172 35.8686 47.3424 35.8458 47.2728C35.8392 47.2524 35.8266 47.2081 35.8121 47.1539C35.8048 47.1266 35.792 47.0795 35.7804 47.0212C35.7717 46.9769 35.748 46.851 35.7428 46.6903C35.7402 46.6102 35.7393 46.4576 35.7725 46.2703C35.8007 46.1113 35.8878 45.7206 36.2024 45.3371C36.596 44.8583 37.1935 44.5804 37.8231 44.5961C38.3276 44.6091 38.6849 44.8058 38.8256 44.8913C39.11 45.0643 39.2813 45.2688 39.311 45.3034C39.3712 45.3735 39.4148 45.4338 39.4359 45.4639C39.5034 45.5604 39.5527 45.6508 39.5567 45.6581C39.5717 45.6849 39.5854 45.7106 39.5944 45.7274C39.611 45.7588 39.6378 45.8082 39.6558 45.8423C39.7399 46.0026 39.8713 46.2495 40.0382 46.516C40.2109 46.7918 40.3898 47.0365 40.5513 47.2094C40.6007 47.2623 40.6411 47.2947 40.6662 47.3164C41.0037 47.4098 41.1312 47.4274 41.2348 47.4253C41.3579 47.4226 41.603 47.3939 42.164 47.1935C42.4784 47.0813 42.8628 46.8574 43.1943 46.5397C43.5212 46.2262 43.7405 45.8756 43.8382 45.5214C43.9202 45.2237 43.9054 44.9551 43.7114 44.4594C43.6025 44.1812 43.4589 43.8888 43.2617 43.4846C43.0962 43.1456 42.9017 42.7363 42.7148 42.2879C42.1897 41.3394 41.2361 39.7905 40.0778 38.2383C38.8743 36.6256 37.5577 35.1541 36.3669 34.2975C35.8377 33.9163 35.5229 33.3034 35.5229 32.6511C35.5229 32.2562 35.64 31.9578 35.6734 31.8725C35.7234 31.7449 35.7771 31.641 35.8121 31.5773C35.8834 31.4478 35.9617 31.3302 36.0182 31.2484C36.1362 31.0775 36.2763 30.8962 36.3926 30.7491C36.5137 30.5961 36.6326 30.4515 36.7195 30.3469C36.7633 30.2943 36.8003 30.2492 36.8265 30.2181C36.8394 30.2029 36.8489 30.1893 36.8563 30.1805C38.9652 27.4417 40.2184 24.014 40.2184 20.2881C40.2184 11.3243 32.9517 4.05774 23.988 4.05761ZM57.5307 5.80508C50.8078 5.80508 45.3578 11.255 45.3578 17.9779C45.3579 20.7922 46.3102 23.3783 47.9117 25.4393L47.9513 25.4928C47.9541 25.4967 47.9604 25.5056 47.9671 25.5146C47.981 25.5332 48.0037 25.5607 48.0305 25.5959C48.0859 25.6683 48.1607 25.7649 48.2425 25.8633C48.3274 25.9653 48.4043 26.052 48.4625 26.111C48.4666 26.1152 48.4708 26.1193 48.4743 26.1229C48.5388 26.1655 48.6246 26.2249 48.7081 26.2972C48.7594 26.3416 48.8604 26.4346 48.9677 26.5687C49.0456 26.666 49.3032 26.9973 49.3877 27.5098C49.5037 28.2151 49.2407 28.9462 48.6685 29.4137C48.254 29.7522 47.8281 29.8274 47.7017 29.8476C47.4066 29.8947 47.1648 29.8613 47.133 29.8575C47.0537 29.8484 46.9884 29.8363 46.9547 29.8298C46.8865 29.8165 46.8206 29.8009 46.7843 29.7922C46.6142 29.751 46.4347 29.703 46.1622 29.6475C45.63 29.5393 44.8393 29.4259 43.9274 29.4771C42.9227 29.5337 42.5653 29.6854 42.1046 29.9467C42.1007 29.9491 42.078 29.9629 42.0392 29.9942C41.9953 30.0298 41.9403 30.0811 41.8768 30.1468C41.7475 30.2804 41.6085 30.453 41.4845 30.6481C41.2073 31.084 41.1359 31.4079 41.1358 31.5099C41.1358 32.3183 41.4229 32.8101 41.9798 33.3525C42.534 33.892 43.0782 34.1138 43.7471 34.2797L44.4643 34.4362L44.5059 34.4461C45.4788 34.6695 46.2004 34.7167 46.7209 34.7413C46.9232 34.7509 47.3009 34.7613 47.5828 34.8028C47.7231 34.8234 48.0512 34.8773 48.3971 35.0564C48.7216 35.2246 49.1156 35.5419 49.356 36.043C49.6101 36.5241 49.738 37.0731 49.8077 37.4101C49.9022 37.8663 49.9725 38.363 50.0237 38.799C50.0755 39.2407 50.1113 39.6537 50.1346 39.954C50.1464 40.105 50.1547 40.2306 50.1604 40.3186C50.1633 40.3623 50.1668 40.3971 50.1683 40.4216C50.169 40.4339 50.1679 40.4443 50.1683 40.4513C50.1686 40.4545 50.1702 40.4572 50.1703 40.4592V40.4632C50.1724 40.5006 50.1723 40.5387 50.1723 40.5761C50.1723 42.2335 50.348 44.0185 50.4715 45.0043C50.5751 45.1525 50.6484 45.2477 50.729 45.3312C50.8203 45.4255 50.9258 45.5083 51.1352 45.5867C51.8223 45.8439 53.2216 46.0405 54.3943 45.9493C55.2805 45.8804 55.8092 45.8389 56.229 45.7353C56.5759 45.6496 56.6841 45.5583 56.754 45.4798C56.9949 45.2089 57.1782 44.7992 57.4098 44.1721C57.4954 43.9405 57.6435 43.5146 57.816 43.1815C57.9053 43.009 58.0746 42.712 58.3549 42.4385C58.6632 42.138 59.2019 41.7807 59.9458 41.7807L60.1677 41.7926C60.6643 41.8453 61.0223 42.0623 61.2059 42.1968C61.4249 42.3575 61.5744 42.5298 61.6557 42.6307C61.8185 42.8331 61.9415 43.0473 62.0123 43.1756C62.1475 43.4206 62.3434 43.8254 62.464 44.0612C62.8066 44.7307 63.0678 45.1118 63.2407 45.2519C63.9336 45.8135 64.8966 46.0736 65.9887 46.0781C67.0831 46.0824 68.0874 45.8252 68.6079 45.6105C70.4281 44.8591 70.7119 43.7006 70.712 43.3024C70.7119 42.35 70.3634 40.8538 69.9175 39.962L69.86 39.8371L69.8541 39.8233C69.8513 39.8164 69.8484 39.8059 69.8442 39.7955C69.8358 39.7749 69.8236 39.7477 69.8105 39.7143C69.7839 39.6463 69.7485 39.5512 69.7075 39.4369C69.6259 39.2096 69.5182 38.8897 69.4202 38.5236C69.2522 37.896 68.9944 36.7368 69.2399 35.6567C69.3615 35.1217 69.593 34.5839 70.0086 34.1192C70.4188 33.6608 70.892 33.404 71.2786 33.2475C71.6342 33.1036 72.0135 33.0099 72.2613 32.9463C72.5471 32.8729 72.789 32.8114 73.0499 32.7244C73.3151 32.6361 73.6316 32.5419 73.8681 32.4688C74.1304 32.3878 74.3667 32.3113 74.5853 32.2271C75.041 32.0516 75.2929 31.89 75.4274 31.7556C75.8487 31.3342 76.0434 30.9017 75.9068 30.127C75.7663 29.7304 75.6539 29.5539 75.5641 29.4514C75.4721 29.3466 75.2968 29.1931 74.8429 28.9937C73.6102 28.4528 71.6378 28.3563 70.6545 28.4826C70.5688 28.4936 70.4814 28.4984 70.395 28.4984C70.395 28.4984 70.3251 28.5002 70.1671 28.5182C70.0257 28.5344 69.8628 28.5589 69.7015 28.5836C69.542 28.608 69.3937 28.6323 69.2855 28.651C69.2319 28.6602 69.1879 28.6675 69.1587 28.6728C69.1449 28.6752 69.134 28.6774 69.127 28.6787C69.1238 28.6793 69.1206 28.6803 69.119 28.6807C68.2913 28.833 67.4541 28.4567 67.0169 27.7376C66.5802 27.0184 66.6333 26.1038 67.1497 25.4393C68.751 23.3783 69.7035 20.792 69.7035 17.9779C69.7035 11.2553 64.2532 5.80549 57.5307 5.80508ZM45.768 39.4587L46.0592 39.9659C46.0409 39.7555 46.0226 39.5161 45.9938 39.2705C45.9731 39.0937 45.9489 38.92 45.9245 38.7554C45.7338 38.7407 45.5249 38.7185 45.2984 38.692C45.4666 38.9602 45.6237 39.2168 45.768 39.4587Z" fill="currentColor"/>
</svg>
