<svg width="62" height="60" viewBox="0 0 62 60" fill="currentColor" xmlns="http://www.w3.org/2000/svg">
<path d="M46.8314 23.0769C47.1104 23.077 47.3724 23.1924 47.5571 23.4014C51.6996 28.0901 61.9617 40.4405 61.9621 47.7389C61.962 56.837 53.7287 59.9689 53.6463 60H36.0081C35.9756 59.9878 27.6925 56.8648 27.6923 47.7389C27.6928 40.4403 37.9551 28.0898 42.0974 23.4014C42.2821 23.1924 42.544 23.0769 42.823 23.0769C43.3627 23.0771 43.7996 23.5152 43.7996 24.055V38.9709C43.7994 39.699 43.2747 40.3058 42.6217 40.628C40.9727 41.4417 39.8381 43.139 39.8377 45.1022C39.8377 47.8571 42.0709 50.0913 44.8257 50.0916C47.5808 50.0916 49.8152 47.8573 49.8152 45.1022C49.8149 43.1393 48.6798 41.4419 47.0313 40.628C46.3785 40.3056 45.8534 39.6989 45.8534 38.9709V24.055C45.8534 23.5151 46.2915 23.0769 46.8314 23.0769Z" fill="currentColor"/>
<path d="M46.8314 23.0769C47.1104 23.077 47.3724 23.1924 47.5571 23.4014C51.6996 28.0901 61.9617 40.4405 61.9621 47.7389C61.962 56.837 53.7287 59.9689 53.6463 60H36.0081C35.9756 59.9878 27.6925 56.8648 27.6923 47.7389C27.6928 40.4403 37.9551 28.0898 42.0974 23.4014C42.2821 23.1924 42.544 23.0769 42.823 23.0769C43.3627 23.0771 43.7996 23.5152 43.7996 24.055V38.9709C43.7994 39.699 43.2747 40.3058 42.6217 40.628C40.9727 41.4417 39.8381 43.139 39.8377 45.1022C39.8377 47.8571 42.0709 50.0913 44.8257 50.0916C47.5808 50.0916 49.8152 47.8573 49.8152 45.1022C49.8149 43.1393 48.6798 41.4419 47.0313 40.628C46.3785 40.3056 45.8534 39.6989 45.8534 38.9709V24.055C45.8534 23.5151 46.2915 23.0769 46.8314 23.0769Z" fill="currentColor"/>
<path d="M46.8314 23.0769C47.1104 23.077 47.3724 23.1924 47.5571 23.4014C51.6996 28.0901 61.9617 40.4405 61.9621 47.7389C61.962 56.837 53.7287 59.9689 53.6463 60H36.0081C35.9756 59.9878 27.6925 56.8648 27.6923 47.7389C27.6928 40.4403 37.9551 28.0898 42.0974 23.4014C42.2821 23.1924 42.544 23.0769 42.823 23.0769C43.3627 23.0771 43.7996 23.5152 43.7996 24.055V38.9709C43.7994 39.699 43.2747 40.3058 42.6217 40.628C40.9727 41.4417 39.8381 43.139 39.8377 45.1022C39.8377 47.8571 42.0709 50.0913 44.8257 50.0916C47.5808 50.0916 49.8152 47.8573 49.8152 45.1022C49.8149 43.1393 48.6798 41.4419 47.0313 40.628C46.3785 40.3056 45.8534 39.6989 45.8534 38.9709V24.055C45.8534 23.5151 46.2915 23.0769 46.8314 23.0769Z" fill="currentColor"/>
<path d="M53.4615 13.8462C54.736 13.8462 55.7692 14.8793 55.7692 16.1538V25.3846C55.7692 26.6591 54.736 27.6923 53.4615 27.6923C52.187 27.6923 51.1538 26.6591 51.1538 25.3846V18.4615H18.8462V50.7692H25.7692C27.0437 50.7692 28.0769 51.8024 28.0769 53.0769C28.0769 54.3514 27.0437 55.3846 25.7692 55.3846H16.5385C15.264 55.3846 14.2308 54.3514 14.2308 53.0769V16.1538C14.2308 14.8793 15.264 13.8462 16.5385 13.8462H53.4615Z" fill="currentColor"/>
<path d="M53.4615 13.8462C54.736 13.8462 55.7692 14.8793 55.7692 16.1538V25.3846C55.7692 26.6591 54.736 27.6923 53.4615 27.6923C52.187 27.6923 51.1538 26.6591 51.1538 25.3846V18.4615H18.8462V50.7692H25.7692C27.0437 50.7692 28.0769 51.8024 28.0769 53.0769C28.0769 54.3514 27.0437 55.3846 25.7692 55.3846H16.5385C15.264 55.3846 14.2308 54.3514 14.2308 53.0769V16.1538C14.2308 14.8793 15.264 13.8462 16.5385 13.8462H53.4615Z" fill="currentColor"/>
<path d="M53.4615 13.8462C54.736 13.8462 55.7692 14.8793 55.7692 16.1538V25.3846C55.7692 26.6591 54.736 27.6923 53.4615 27.6923C52.187 27.6923 51.1538 26.6591 51.1538 25.3846V18.4615H18.8462V50.7692H25.7692C27.0437 50.7692 28.0769 51.8024 28.0769 53.0769C28.0769 54.3514 27.0437 55.3846 25.7692 55.3846H16.5385C15.264 55.3846 14.2308 54.3514 14.2308 53.0769V16.1538C14.2308 14.8793 15.264 13.8462 16.5385 13.8462H53.4615Z" fill="currentColor"/>
<path d="M10.7692 12.3077C11.6189 12.3077 12.3077 12.9965 12.3077 13.8462C12.3077 14.6958 11.6189 15.3846 10.7692 15.3846H1.53846C0.688793 15.3846 0 14.6958 0 13.8462C0 12.9965 0.688793 12.3077 1.53846 12.3077H10.7692Z" fill="currentColor"/>
<path d="M10.7692 12.3077C11.6189 12.3077 12.3077 12.9965 12.3077 13.8462C12.3077 14.6958 11.6189 15.3846 10.7692 15.3846H1.53846C0.688793 15.3846 0 14.6958 0 13.8462C0 12.9965 0.688793 12.3077 1.53846 12.3077H10.7692Z" fill="currentColor"/>
<path d="M10.7692 12.3077C11.6189 12.3077 12.3077 12.9965 12.3077 13.8462C12.3077 14.6958 11.6189 15.3846 10.7692 15.3846H1.53846C0.688793 15.3846 0 14.6958 0 13.8462C0 12.9965 0.688793 12.3077 1.53846 12.3077H10.7692Z" fill="currentColor"/>
<path d="M13.8462 0C14.6958 0 15.3846 0.688793 15.3846 1.53846V10.7692C15.3846 11.6189 14.6958 12.3077 13.8462 12.3077C12.9965 12.3077 12.3077 11.6189 12.3077 10.7692V1.53846C12.3077 0.688793 12.9965 0 13.8462 0Z" fill="currentColor"/>
<path d="M13.8462 0C14.6958 0 15.3846 0.688793 15.3846 1.53846V10.7692C15.3846 11.6189 14.6958 12.3077 13.8462 12.3077C12.9965 12.3077 12.3077 11.6189 12.3077 10.7692V1.53846C12.3077 0.688793 12.9965 0 13.8462 0Z" fill="currentColor"/>
<path d="M13.8462 0C14.6958 0 15.3846 0.688793 15.3846 1.53846V10.7692C15.3846 11.6189 14.6958 12.3077 13.8462 12.3077C12.9965 12.3077 12.3077 11.6189 12.3077 10.7692V1.53846C12.3077 0.688793 12.9965 0 13.8462 0Z" fill="currentColor"/>
</svg>
