<svg width="77" height="60" viewBox="0 0 77 60" fill="currentColor" xmlns="http://www.w3.org/2000/svg">
<path d="M33.0294 37.2083C34.3747 36.2414 36.2503 36.5487 37.2174 37.8938C38.184 39.2392 37.8771 41.1135 36.5319 42.0803C30.8218 46.1846 27.2306 50.2809 25.0856 53.2951C24.0121 54.8038 23.2975 56.0455 22.862 56.884C22.6445 57.3028 22.4969 57.6221 22.4079 57.8229C22.364 57.9221 22.3348 57.9927 22.3186 58.0324L22.3083 58.0573L22.3068 58.0558C21.953 58.9961 21.153 59.6978 20.174 59.9235C19.1955 60.1488 18.1687 59.8693 17.4392 59.1794L17.4377 59.1779L17.4216 59.1633C17.4044 59.1473 17.3752 59.1205 17.3352 59.0842C17.2538 59.0101 17.1251 58.8943 16.9543 58.7458C16.6125 58.4486 16.099 58.0165 15.4368 57.4992C14.1075 56.4608 12.1978 55.0943 9.88944 53.7888C8.44748 52.973 7.94006 51.1425 8.75565 49.7004C9.5713 48.2587 11.4006 47.7515 12.8425 48.5666C15.1458 49.8693 17.0915 51.2174 18.5495 52.3225C19.0006 51.5753 19.5446 50.7331 20.196 49.8176C22.6916 46.3106 26.7407 41.7285 33.0294 37.2083Z" fill="currentColor"/>
<path d="M33.0294 37.2083C34.3747 36.2414 36.2503 36.5487 37.2174 37.8938C38.184 39.2392 37.8771 41.1135 36.5319 42.0803C30.8218 46.1846 27.2306 50.2809 25.0856 53.2951C24.0121 54.8038 23.2975 56.0455 22.862 56.884C22.6445 57.3028 22.4969 57.6221 22.4079 57.8229C22.364 57.9221 22.3348 57.9927 22.3186 58.0324L22.3083 58.0573L22.3068 58.0558C21.953 58.9961 21.153 59.6978 20.174 59.9235C19.1955 60.1488 18.1687 59.8693 17.4392 59.1794L17.4377 59.1779L17.4216 59.1633C17.4044 59.1473 17.3752 59.1205 17.3352 59.0842C17.2538 59.0101 17.1251 58.8943 16.9543 58.7458C16.6125 58.4486 16.099 58.0165 15.4368 57.4992C14.1075 56.4608 12.1978 55.0943 9.88944 53.7888C8.44748 52.973 7.94006 51.1425 8.75565 49.7004C9.5713 48.2587 11.4006 47.7515 12.8425 48.5666C15.1458 49.8693 17.0915 51.2174 18.5495 52.3225C19.0006 51.5753 19.5446 50.7331 20.196 49.8176C22.6916 46.3106 26.7407 41.7285 33.0294 37.2083Z" fill="currentColor"/>
<path d="M33.0294 37.2083C34.3747 36.2414 36.2503 36.5487 37.2174 37.8938C38.184 39.2392 37.8771 41.1135 36.5319 42.0803C30.8218 46.1846 27.2306 50.2809 25.0856 53.2951C24.0121 54.8038 23.2975 56.0455 22.862 56.884C22.6445 57.3028 22.4969 57.6221 22.4079 57.8229C22.364 57.9221 22.3348 57.9927 22.3186 58.0324L22.3083 58.0573L22.3068 58.0558C21.953 58.9961 21.153 59.6978 20.174 59.9235C19.1955 60.1488 18.1687 59.8693 17.4392 59.1794L17.4377 59.1779L17.4216 59.1633C17.4044 59.1473 17.3752 59.1205 17.3352 59.0842C17.2538 59.0101 17.1251 58.8943 16.9543 58.7458C16.6125 58.4486 16.099 58.0165 15.4368 57.4992C14.1075 56.4608 12.1978 55.0943 9.88944 53.7888C8.44748 52.973 7.94006 51.1425 8.75565 49.7004C9.5713 48.2587 11.4006 47.7515 12.8425 48.5666C15.1458 49.8693 17.0915 51.2174 18.5495 52.3225C19.0006 51.5753 19.5446 50.7331 20.196 49.8176C22.6916 46.3106 26.7407 41.7285 33.0294 37.2083Z" fill="currentColor"/>
<path d="M0.111657 46.8162C0.558475 45.2211 2.2137 44.2898 3.8089 44.7361C3.92569 44.7688 4.043 44.8019 4.159 44.8357C5.74938 45.2994 6.66288 46.9644 6.19951 48.5549C5.73594 50.1454 4.07077 51.0587 2.4803 50.5954C2.38473 50.5676 2.28766 50.5403 2.19172 50.5134C0.596829 50.0665 -0.334603 48.4112 0.111657 46.8162Z" fill="currentColor"/>
<path d="M0.111657 46.8162C0.558475 45.2211 2.2137 44.2898 3.8089 44.7361C3.92569 44.7688 4.043 44.8019 4.159 44.8357C5.74938 45.2994 6.66288 46.9644 6.19951 48.5549C5.73594 50.1454 4.07077 51.0587 2.4803 50.5954C2.38473 50.5676 2.28766 50.5403 2.19172 50.5134C0.596829 50.0665 -0.334603 48.4112 0.111657 46.8162Z" fill="currentColor"/>
<path d="M0.111657 46.8162C0.558475 45.2211 2.2137 44.2898 3.8089 44.7361C3.92569 44.7688 4.043 44.8019 4.159 44.8357C5.74938 45.2994 6.66288 46.9644 6.19951 48.5549C5.73594 50.1454 4.07077 51.0587 2.4803 50.5954C2.38473 50.5676 2.28766 50.5403 2.19172 50.5134C0.596829 50.0665 -0.334603 48.4112 0.111657 46.8162Z" fill="currentColor"/>
<path fill-rule="evenodd" clip-rule="evenodd" d="M55.1529 0C66.7508 0 76.1527 9.40197 76.1527 20.9999C76.1527 32.5978 66.7508 41.9998 55.1529 41.9998C43.5552 41.9995 34.153 32.5976 34.153 20.9999C34.153 9.40214 43.5552 0.000275236 55.1529 0ZM55.1529 5.99997C46.8689 6.00024 40.1529 12.7158 40.1529 20.9999C40.1529 29.2839 46.8689 35.9995 55.1529 35.9998C63.4371 35.9998 70.1528 29.2841 70.1528 20.9999C70.1528 12.7157 63.4371 5.99997 55.1529 5.99997Z" fill="currentColor"/>
<path fill-rule="evenodd" clip-rule="evenodd" d="M55.1529 0C66.7508 0 76.1527 9.40197 76.1527 20.9999C76.1527 32.5978 66.7508 41.9998 55.1529 41.9998C43.5552 41.9995 34.153 32.5976 34.153 20.9999C34.153 9.40214 43.5552 0.000275236 55.1529 0ZM55.1529 5.99997C46.8689 6.00024 40.1529 12.7158 40.1529 20.9999C40.1529 29.2839 46.8689 35.9995 55.1529 35.9998C63.4371 35.9998 70.1528 29.2841 70.1528 20.9999C70.1528 12.7157 63.4371 5.99997 55.1529 5.99997Z" fill="currentColor"/>
<path fill-rule="evenodd" clip-rule="evenodd" d="M55.1529 0C66.7508 0 76.1527 9.40197 76.1527 20.9999C76.1527 32.5978 66.7508 41.9998 55.1529 41.9998C43.5552 41.9995 34.153 32.5976 34.153 20.9999C34.153 9.40214 43.5552 0.000275236 55.1529 0ZM55.1529 5.99997C46.8689 6.00024 40.1529 12.7158 40.1529 20.9999C40.1529 29.2839 46.8689 35.9995 55.1529 35.9998C63.4371 35.9998 70.1528 29.2841 70.1528 20.9999C70.1528 12.7157 63.4371 5.99997 55.1529 5.99997Z" fill="currentColor"/>
<path d="M60.1095 21.1918C60.8676 21.2465 61.4768 21.8673 61.4997 22.6434C61.5135 23.1158 61.3056 23.5422 60.9723 23.827C60.7699 24.1062 60.5088 24.3928 60.174 24.6708L60.0744 24.7528L59.9631 24.8172C59.3156 25.1896 58.7268 25.4907 58.0602 25.6478C57.5138 25.7766 56.9424 25.9408 55.7224 25.9525C54.9394 25.96 54.0926 25.978 53.3684 25.951C52.702 25.9262 51.8668 25.8615 51.2165 25.5731C50.286 25.1601 49.3679 24.3765 48.9065 23.4506C48.5373 22.7093 48.8393 21.8075 49.5803 21.4379C50.3217 21.0684 51.2234 21.3704 51.593 22.1117C51.6901 22.3067 52.0218 22.6485 52.4323 22.8309C52.4283 22.8291 52.4474 22.837 52.4982 22.85C52.5504 22.8632 52.6233 22.8784 52.7194 22.8925C52.9157 22.9212 53.1687 22.9409 53.4797 22.9525C54.1125 22.9761 54.8525 22.9605 55.6931 22.9525C56.1507 22.9482 56.4444 22.9192 56.6642 22.8837C56.9009 22.8454 57.0663 22.8004 57.3718 22.7284C57.5747 22.6806 57.824 22.5787 58.3312 22.2933C58.4594 22.1776 58.5307 22.0921 58.5627 22.0443C58.5768 22.0232 58.6694 21.8802 58.7839 21.7513C58.8388 21.6896 59.2447 21.2086 59.9557 21.1874L60.1095 21.1918Z" fill="currentColor"/>
<path d="M60.1095 21.1918C60.8676 21.2465 61.4768 21.8673 61.4997 22.6434C61.5135 23.1158 61.3056 23.5422 60.9723 23.827C60.7699 24.1062 60.5088 24.3928 60.174 24.6708L60.0744 24.7528L59.9631 24.8172C59.3156 25.1896 58.7268 25.4907 58.0602 25.6478C57.5138 25.7766 56.9424 25.9408 55.7224 25.9525C54.9394 25.96 54.0926 25.978 53.3684 25.951C52.702 25.9262 51.8668 25.8615 51.2165 25.5731C50.286 25.1601 49.3679 24.3765 48.9065 23.4506C48.5373 22.7093 48.8393 21.8075 49.5803 21.4379C50.3217 21.0684 51.2234 21.3704 51.593 22.1117C51.6901 22.3067 52.0218 22.6485 52.4323 22.8309C52.4283 22.8291 52.4474 22.837 52.4982 22.85C52.5504 22.8632 52.6233 22.8784 52.7194 22.8925C52.9157 22.9212 53.1687 22.9409 53.4797 22.9525C54.1125 22.9761 54.8525 22.9605 55.6931 22.9525C56.1507 22.9482 56.4444 22.9192 56.6642 22.8837C56.9009 22.8454 57.0663 22.8004 57.3718 22.7284C57.5747 22.6806 57.824 22.5787 58.3312 22.2933C58.4594 22.1776 58.5307 22.0921 58.5627 22.0443C58.5768 22.0232 58.6694 21.8802 58.7839 21.7513C58.8388 21.6896 59.2447 21.2086 59.9557 21.1874L60.1095 21.1918Z" fill="currentColor"/>
<path d="M60.1095 21.1918C60.8676 21.2465 61.4768 21.8673 61.4997 22.6434C61.5135 23.1158 61.3056 23.5422 60.9723 23.827C60.7699 24.1062 60.5088 24.3928 60.174 24.6708L60.0744 24.7528L59.9631 24.8172C59.3156 25.1896 58.7268 25.4907 58.0602 25.6478C57.5138 25.7766 56.9424 25.9408 55.7224 25.9525C54.9394 25.96 54.0926 25.978 53.3684 25.951C52.702 25.9262 51.8668 25.8615 51.2165 25.5731C50.286 25.1601 49.3679 24.3765 48.9065 23.4506C48.5373 22.7093 48.8393 21.8075 49.5803 21.4379C50.3217 21.0684 51.2234 21.3704 51.593 22.1117C51.6901 22.3067 52.0218 22.6485 52.4323 22.8309C52.4283 22.8291 52.4474 22.837 52.4982 22.85C52.5504 22.8632 52.6233 22.8784 52.7194 22.8925C52.9157 22.9212 53.1687 22.9409 53.4797 22.9525C54.1125 22.9761 54.8525 22.9605 55.6931 22.9525C56.1507 22.9482 56.4444 22.9192 56.6642 22.8837C56.9009 22.8454 57.0663 22.8004 57.3718 22.7284C57.5747 22.6806 57.824 22.5787 58.3312 22.2933C58.4594 22.1776 58.5307 22.0921 58.5627 22.0443C58.5768 22.0232 58.6694 21.8802 58.7839 21.7513C58.8388 21.6896 59.2447 21.2086 59.9557 21.1874L60.1095 21.1918Z" fill="currentColor"/>
<path d="M47.0432 14.2499C48.7 14.2499 50.0432 15.5931 50.0432 17.2499C50.0432 18.9068 48.7 20.2499 47.0432 20.2499C45.3865 20.2497 44.0432 18.9066 44.0432 17.2499C44.0432 15.5932 45.3865 14.2501 47.0432 14.2499Z" fill="currentColor"/>
<path d="M47.0432 14.2499C48.7 14.2499 50.0432 15.5931 50.0432 17.2499C50.0432 18.9068 48.7 20.2499 47.0432 20.2499C45.3865 20.2497 44.0432 18.9066 44.0432 17.2499C44.0432 15.5932 45.3865 14.2501 47.0432 14.2499Z" fill="currentColor"/>
<path d="M47.0432 14.2499C48.7 14.2499 50.0432 15.5931 50.0432 17.2499C50.0432 18.9068 48.7 20.2499 47.0432 20.2499C45.3865 20.2497 44.0432 18.9066 44.0432 17.2499C44.0432 15.5932 45.3865 14.2501 47.0432 14.2499Z" fill="currentColor"/>
<path d="M63.2619 14.2499C64.9187 14.2499 66.2618 15.5931 66.2618 17.2499C66.2618 18.9068 64.9187 20.2499 63.2619 20.2499C61.6052 20.2497 60.2619 18.9066 60.2619 17.2499C60.2619 15.5932 61.6052 14.2501 63.2619 14.2499Z" fill="currentColor"/>
<path d="M63.2619 14.2499C64.9187 14.2499 66.2618 15.5931 66.2618 17.2499C66.2618 18.9068 64.9187 20.2499 63.2619 20.2499C61.6052 20.2497 60.2619 18.9066 60.2619 17.2499C60.2619 15.5932 61.6052 14.2501 63.2619 14.2499Z" fill="currentColor"/>
<path d="M63.2619 14.2499C64.9187 14.2499 66.2618 15.5931 66.2618 17.2499C66.2618 18.9068 64.9187 20.2499 63.2619 20.2499C61.6052 20.2497 60.2619 18.9066 60.2619 17.2499C60.2619 15.5932 61.6052 14.2501 63.2619 14.2499Z" fill="currentColor"/>
</svg>
