<svg width="72" height="70" viewBox="0 0 72 70" fill="currentColor" xmlns="http://www.w3.org/2000/svg">
<path fill-rule="evenodd" clip-rule="evenodd" d="M35.6226 0C15.9242 0 0 16.0416 0 35.8872C0 51.7509 10.2032 65.1792 24.3577 69.9319C26.1274 70.2892 26.7756 69.1597 26.7756 68.2096C26.7756 67.3776 26.7173 64.5259 26.7173 61.5545C16.808 63.6939 14.7444 57.2765 14.7444 57.2765C13.1519 53.1174 10.7924 52.0484 10.7924 52.0484C7.54903 49.85 11.0286 49.85 11.0286 49.85C14.6263 50.0877 16.5141 53.5337 16.5141 53.5337C19.6984 58.9995 24.8295 57.4552 26.8937 56.5043C27.1883 54.1871 28.1326 52.5829 29.1352 51.6919C21.2318 50.8599 12.9164 47.7704 12.9164 33.9856C12.9164 30.0641 14.331 26.8558 16.5724 24.3606C16.2188 23.4696 14.9799 19.7851 16.9268 14.8538C16.9268 14.8538 19.9346 13.903 26.7166 18.5375C29.6201 17.752 32.6146 17.3524 35.6226 17.349C38.6304 17.349 41.6965 17.7653 44.5278 18.5375C51.3105 13.903 54.3183 14.8538 54.3183 14.8538C56.2652 19.7851 55.0256 23.4696 54.672 24.3606C56.9725 26.8558 58.3287 30.0641 58.3287 33.9856C58.3287 47.7704 50.0133 50.8001 42.0509 51.6919C43.3488 52.8206 44.4688 54.9593 44.4688 58.3462C44.4688 63.1587 44.4104 67.0211 44.4104 68.2089C44.4104 69.1597 45.0594 70.2892 46.8283 69.9326C60.9829 65.1785 71.1861 51.7509 71.1861 35.8872C71.2444 16.0416 55.2619 0 35.6226 0Z" fill="currentColor"/>
</svg>
